CommonSerif-Bold.ufo
<glyph name="parenright" format="2">
  <advance width="315"/>
  <unicode hex="0029"/>
  <outline>
    <contour>
      <point x="279" y="251" type="curve" smooth="yes"/>
      <point x="279" y="410.136"/>
      <point x="185.961" y="597.016"/>
      <point x="47" y="717" type="curve"/>
      <point x="32.4237" y="715.073"/>
      <point x="15.8228" y="697.366"/>
      <point x="17" y="685" type="curve"/>
      <point x="105.235" y="585.736"/>
      <point x="164" y="412.238"/>
      <point x="164" y="251" type="curve" smooth="yes"/>
      <point x="164" y="90.3648"/>
      <point x="105.382" y="-83.1124"/>
      <point x="17" y="-182" type="curve"/>
      <point x="17" y="-192.913"/>
      <point x="34.2894" y="-213.907"/>
      <point x="45" y="-216" type="curve"/>
      <point x="185.259" y="-95.0129"/>
      <point x="279" y="92.0678"/>
    </contour>
  </outline>
</glyph>
<glyph name="F" format="2">
  <advance width="557"/>
  <unicode hex="0046"/>
  <anchor x="282" y="740" name="top"/>
  <anchor x="364" y="-60" name="b.minus-60"/>
  <outline>
    <contour>
      <point x="238" y="299" type="line"/>
      <point x="334" y="299" type="line" smooth="yes"/>
      <point x="403" y="299"/>
      <point x="422" y="280"/>
      <point x="425" y="235" type="curve"/>
      <point x="431" y="229"/>
      <point x="462" y="229"/>
      <point x="468" y="235" type="curve"/>
      <point x="466" y="270"/>
      <point x="466" y="300"/>
      <point x="466" y="323" type="curve" smooth="yes"/>
      <point x="466" y="346"/>
      <point x="467" y="380"/>
      <point x="468" y="409" type="curve"/>
      <point x="462" y="415"/>
      <point x="431" y="415"/>
      <point x="425" y="409" type="curve"/>
      <point x="422" y="354"/>
      <point x="401" y="345"/>
      <point x="334" y="345" type="curve" smooth="yes"/>
      <point x="238" y="345" type="line"/>
    </contour>
    <contour>
      <point x="113" y="122.001" type="line" name=".sk1"/>
      <point x="113" y="55.001"/>
      <point x="93.6527" y="35.0775"/>
      <point x="29.6412" y="32.3332" type="curve"/>
      <point x="19.6174" y="26.3731"/>
      <point x="19.5295" y="4.37332"/>
      <point x="29.5055" y="-1.66657" type="curve"/>
      <point x="71.5091" y="-0.83431"/>
      <point x="144.513" y="-0.125849"/>
      <point x="182.512" y="-0.277605" type="curve"/>
      <point x="153" y="0"/>
      <point x="306" y="-1"/>
      <point x="346" y="-2" type="curve"/>
      <point x="356" y="4"/>
      <point x="356" y="26"/>
      <point x="346" y="32" type="curve"/>
      <point x="291" y="35"/>
      <point x="253" y="39"/>
      <point x="253" y="122" type="curve" smooth="yes"/>
      <point x="253" y="554" type="line" smooth="yes"/>
      <point x="253" y="578"/>
      <point x="270" y="603"/>
      <point x="294" y="603" type="curve" smooth="yes"/>
      <point x="384" y="603" type="line" smooth="yes"/>
      <point x="459" y="603"/>
      <point x="485" y="560"/>
      <point x="507" y="491" type="curve"/>
      <point x="519" y="489"/>
      <point x="532" y="491"/>
      <point x="542" y="496" type="curve"/>
      <point x="539" y="540"/>
      <point x="531" y="638"/>
      <point x="530" y="646" type="curve"/>
      <point x="530" y="648"/>
      <point x="529" y="649"/>
      <point x="526" y="649" type="curve"/>
      <point x="509" y="646"/>
      <point x="501" y="645"/>
      <point x="477" y="645" type="curve" smooth="yes"/>
      <point x="183" y="645" type="line" name=".sk2"/>
      <point x="145" y="645"/>
      <point x="72" y="646"/>
      <point x="30" y="647" type="curve"/>
      <point x="20" y="641"/>
      <point x="20" y="619"/>
      <point x="30" y="613" type="curve"/>
      <point x="94.1187" y="610.193"/>
      <point x="113" y="589.719"/>
      <point x="113" y="523" type="curve"/>
    </contour>
  </outline>
  <guideline angle="90" x="113" y="0"/>
  <guideline angle="90" x="253" y="0"/>
</glyph>
<glyph name="K" format="2">
  <advance width="743"/>
  <unicode hex="004B"/>
  <anchor x="361" y="740" name="top"/>
  <anchor x="359" y="-60" name="b.minus-60"/>
  <outline>
    <contour>
      <point x="113" y="122" type="line" name=".sk2"/>
      <point x="113" y="55.0002"/>
      <point x="93.859" y="35.0311"/>
      <point x="29.8542" y="32.1348" type="curve"/>
      <point x="19.8445" y="26.1511"/>
      <point x="19.8088" y="4.1511"/>
      <point x="29.7991" y="-1.86511" type="curve"/>
      <point x="71.8006" y="-0.933203"/>
      <point x="144.802" y="-0.0515619"/>
      <point x="182.802" y="-0.113173" type="curve"/>
      <point x="187.351" y="0"/>
      <point x="261.667" y="-0.1369"/>
      <point x="336" y="-2" type="curve"/>
      <point x="346" y="4"/>
      <point x="346" y="26"/>
      <point x="336" y="32" type="curve"/>
      <point x="281" y="35"/>
      <point x="253" y="39"/>
      <point x="253" y="122" type="curve" smooth="yes"/>
      <point x="253" y="319.52" type="line"/>
      <point x="275.02" y="314.88"/>
      <point x="296.49" y="299.06"/>
      <point x="318" y="271" type="curve" smooth="yes"/>
      <point x="469" y="74" type="line" smooth="yes"/>
      <point x="488.95" y="47.96"/>
      <point x="503" y="20"/>
      <point x="505" y="4" type="curve"/>
      <point x="505" y="1"/>
      <point x="506" y="-2"/>
      <point x="510" y="-2" type="curve"/>
      <point x="530" y="-1"/>
      <point x="583" y="0"/>
      <point x="613" y="0" type="curve" smooth="yes"/>
      <point x="652" y="0"/>
      <point x="692" y="-1"/>
      <point x="731" y="-2" type="curve"/>
      <point x="737" y="4"/>
      <point x="737" y="26"/>
      <point x="731" y="32" type="curve"/>
      <point x="701" y="36"/>
      <point x="678.63" y="43.68"/>
      <point x="653" y="74" type="curve" smooth="yes"/>
      <point x="434" y="333" type="line" smooth="yes"/>
      <point x="417.05" y="353.04"/>
      <point x="404" y="370"/>
      <point x="404" y="378" type="curve" smooth="yes"/>
      <point x="404" y="385"/>
      <point x="404.89" y="397.11"/>
      <point x="416" y="407" type="curve" smooth="yes"/>
      <point x="525" y="504" type="line" smooth="yes"/>
      <point x="583.75" y="556.28"/>
      <point x="640" y="605"/>
      <point x="699" y="613" type="curve"/>
      <point x="705" y="619"/>
      <point x="705" y="641"/>
      <point x="699" y="647" type="curve"/>
      <point x="674" y="646"/>
      <point x="639" y="645"/>
      <point x="604" y="645" type="curve" smooth="yes"/>
      <point x="564" y="645"/>
      <point x="519" y="646"/>
      <point x="481" y="647" type="curve"/>
      <point x="475" y="641"/>
      <point x="475" y="619"/>
      <point x="481" y="613" type="curve"/>
      <point x="540" y="607"/>
      <point x="539.4" y="572.41"/>
      <point x="486" y="525" type="curve" smooth="yes"/>
      <point x="379" y="430" type="line" smooth="yes"/>
      <point x="319.69" y="377.34"/>
      <point x="280.14" y="348.85"/>
      <point x="253" y="341.16" type="curve"/>
      <point x="253" y="523" type="line" smooth="yes"/>
      <point x="253" y="606"/>
      <point x="281" y="610"/>
      <point x="336" y="613" type="curve"/>
      <point x="346" y="619"/>
      <point x="346" y="641"/>
      <point x="336" y="647" type="curve"/>
      <point x="261.667" y="645.137"/>
      <point x="187.352" y="645"/>
      <point x="183" y="645" type="curve" name=".sk1"/>
      <point x="145" y="644.938"/>
      <point x="72" y="646"/>
      <point x="30" y="647" type="curve"/>
      <point x="20" y="641"/>
      <point x="20" y="619"/>
      <point x="30" y="613" type="curve"/>
      <point x="94.1187" y="610.193"/>
      <point x="113" y="589.719"/>
      <point x="113" y="523" type="curve"/>
    </contour>
  </outline>
</glyph>
<glyph name="P" format="2">
  <advance width="613"/>
  <unicode hex="0050"/>
  <anchor x="297" y="740" name="top"/>
  <anchor x="351" y="-60" name="b.minus-60"/>
  <outline>
    <contour>
      <point x="113" y="122" type="line" name=".sk2"/>
      <point x="113" y="55.0002"/>
      <point x="93.8589" y="35.0311"/>
      <point x="29.8541" y="32.135" type="curve"/>
      <point x="19.8444" y="26.1512"/>
      <point x="19.8087" y="4.15122"/>
      <point x="29.7989" y="-1.865" type="curve"/>
      <point x="71.8005" y="-0.933152"/>
      <point x="144.802" y="-0.0516015"/>
      <point x="182.802" y="-0.11326" type="curve"/>
      <point x="187.346" y="0"/>
      <point x="261.672" y="-0.1375"/>
      <point x="336" y="-2" type="curve"/>
      <point x="346" y="4"/>
      <point x="346" y="26"/>
      <point x="336" y="32" type="curve"/>
      <point x="281" y="35"/>
      <point x="253" y="39"/>
      <point x="253" y="122" type="curve" smooth="yes"/>
      <point x="253" y="524" type="line" smooth="yes"/>
      <point x="253" y="592"/>
      <point x="260" y="613"/>
      <point x="313" y="613" type="curve" smooth="yes"/>
      <point x="371" y="613"/>
      <point x="438" y="589"/>
      <point x="438" y="467" type="curve" smooth="yes"/>
      <point x="438" y="363"/>
      <point x="409" y="319"/>
      <point x="327" y="319" type="curve" smooth="yes"/>
      <point x="312" y="319"/>
      <point x="291" y="320"/>
      <point x="277" y="322" type="curve"/>
      <point x="277" y="303"/>
      <point x="283" y="289"/>
      <point x="297" y="280" type="curve"/>
      <point x="311" y="278"/>
      <point x="308" y="277"/>
      <point x="332" y="277" type="curve" smooth="yes"/>
      <point x="474" y="277"/>
      <point x="589" y="322"/>
      <point x="589" y="484" type="curve" smooth="yes"/>
      <point x="589" y="625"/>
      <point x="458" y="654"/>
      <point x="345" y="654" type="curve" smooth="yes"/>
      <point x="267.858" y="654"/>
      <point x="190.679" y="645.012"/>
      <point x="183" y="645" type="curve" name=".sk1"/>
      <point x="145.01" y="644.115"/>
      <point x="72" y="646"/>
      <point x="30" y="647" type="curve"/>
      <point x="20" y="641"/>
      <point x="20" y="619"/>
      <point x="30" y="613" type="curve"/>
      <point x="94.1187" y="610.193"/>
      <point x="113" y="589.719"/>
      <point x="113" y="523" type="curve"/>
    </contour>
  </outline>
</glyph>
<glyph name="Y" format="2">
  <advance width="624"/>
  <unicode hex="0059"/>
  <anchor x="354" y="740" name="top"/>
  <anchor x="352" y="-60" name="b.minus-60"/>
  <outline>
    <contour>
      <point x="247" y="122" type="line" name=".sk1"/>
      <point x="247" y="55"/>
      <point x="228" y="35"/>
      <point x="164" y="32" type="curve"/>
      <point x="154" y="26"/>
      <point x="154" y="4"/>
      <point x="164" y="-2" type="curve"/>
      <point x="206" y="-1"/>
      <point x="279" y="0"/>
      <point x="317" y="0" type="curve"/>
      <point x="317" y="0" type="line" name=".sk2"/>
      <point x="355" y="0"/>
      <point x="428" y="-1"/>
      <point x="470" y="-2" type="curve"/>
      <point x="480" y="4"/>
      <point x="480" y="26"/>
      <point x="470" y="32" type="curve"/>
      <point x="406" y="35"/>
      <point x="387" y="55"/>
      <point x="387" y="122" type="curve"/>
      <point x="387" y="268" type="line" smooth="yes"/>
      <point x="387" y="308"/>
      <point x="391" y="329"/>
      <point x="404" y="351" type="curve" smooth="yes"/>
      <point x="532" y="565" type="line" smooth="yes"/>
      <point x="555" y="603"/>
      <point x="574" y="609"/>
      <point x="619" y="613" type="curve"/>
      <point x="625" y="619"/>
      <point x="625" y="641"/>
      <point x="619" y="647" type="curve"/>
      <point x="589" y="646"/>
      <point x="549" y="645"/>
      <point x="526" y="645" type="curve" smooth="yes"/>
      <point x="503" y="645"/>
      <point x="455" y="646"/>
      <point x="415" y="647" type="curve"/>
      <point x="409" y="641"/>
      <point x="409" y="619"/>
      <point x="415" y="613" type="curve"/>
      <point x="449.501" y="610.648"/>
      <point x="471.091" y="600.302"/>
      <point x="471.091" y="581.482" type="curve" smooth="yes"/>
      <point x="471.091" y="576.301"/>
      <point x="469.454" y="570.477"/>
      <point x="466" y="564" type="curve" smooth="yes"/>
      <point x="363" y="370" type="line" smooth="yes"/>
      <point x="356" y="357"/>
      <point x="349" y="357"/>
      <point x="340" y="373" type="curve" smooth="yes"/>
      <point x="236" y="557" type="line" smooth="yes"/>
      <point x="228.024" y="571.432"/>
      <point x="223.078" y="582.547"/>
      <point x="223.078" y="590.946" type="curve" smooth="yes"/>
      <point x="223.078" y="604.663"/>
      <point x="236.269" y="611.139"/>
      <point x="271" y="613" type="curve"/>
      <point x="277" y="619"/>
      <point x="277" y="641"/>
      <point x="271" y="647" type="curve"/>
      <point x="231" y="646"/>
      <point x="187" y="645"/>
      <point x="147" y="645" type="curve" smooth="yes"/>
      <point x="108" y="645"/>
      <point x="35" y="646"/>
      <point x="5" y="647" type="curve"/>
      <point x="-1" y="641"/>
      <point x="0" y="619"/>
      <point x="6" y="613" type="curve"/>
      <point x="48" y="610"/>
      <point x="66.9414" y="602.965"/>
      <point x="100" y="547" type="curve" smooth="yes"/>
      <point x="227" y="332" type="line" smooth="yes"/>
      <point x="244.359" y="302.612"/>
      <point x="247" y="296"/>
      <point x="247" y="259" type="curve" smooth="yes"/>
    </contour>
  </outline>
</glyph>
<glyph name="b" format="2">
  <advance width="542"/>
  <unicode hex="0062"/>
  <anchor x="275" y="740" name="top"/>
  <anchor x="254" y="-60" name="b.minus-60"/>
  <outline>
    <contour>
      <point x="68" y="-6" type="curve"/>
      <point x="80" y="-10"/>
      <point x="91" y="-13"/>
      <point x="102" y="-13" type="curve"/>
      <point x="115" y="-2"/>
      <point x="125" y="12"/>
      <point x="134" y="30" type="curve"/>
      <point x="173" y="0"/>
      <point x="234" y="-10"/>
      <point x="280" y="-10" type="curve" smooth="yes"/>
      <point x="391" y="-10"/>
      <point x="508" y="100"/>
      <point x="508" y="243" type="curve" smooth="yes"/>
      <point x="508" y="363"/>
      <point x="438" y="444"/>
      <point x="317" y="444" type="curve" smooth="yes"/>
      <point x="278" y="444"/>
      <point x="216" y="398"/>
      <point x="185" y="374" type="curve"/>
      <point x="185" y="334" type="line"/>
      <point x="229" y="369"/>
      <point x="255" y="373"/>
      <point x="282" y="373" type="curve" smooth="yes"/>
      <point x="331" y="373"/>
      <point x="368" y="328"/>
      <point x="368" y="230" type="curve" smooth="yes"/>
      <point x="368" y="148"/>
      <point x="354" y="32"/>
      <point x="275" y="32" type="curve" smooth="yes"/>
      <point x="246" y="32"/>
      <point x="223" y="44"/>
      <point x="204" y="67" type="curve"/>
      <point x="204" y="576" type="line" name=".sk1"/>
      <point x="204" y="627.375"/>
      <point x="205.078" y="655.678"/>
      <point x="208" y="681" type="curve"/>
      <point x="208" y="691.674"/>
      <point x="199.441" y="698"/>
      <point x="185" y="698" type="curve"/>
      <point x="155.764" y="686.306"/>
      <point x="71.6902" y="673.08"/>
      <point x="7" y="670" type="curve"/>
      <point x="5.3" y="664.9"/>
      <point x="6.5714" y="643.286"/>
      <point x="9" y="636" type="curve"/>
      <point x="61.6047" y="630.942"/>
      <point x="74" y="619.5"/>
      <point x="74" y="576" type="curve"/>
      <point x="74" y="127" type="line" smooth="yes"/>
      <point x="74" y="44"/>
      <point x="72" y="32"/>
    </contour>
  </outline>
</glyph>
<glyph name="k" format="2">
  <advance width="612"/>
  <unicode hex="006B"/>
  <anchor x="316" y="740" name="top"/>
  <anchor x="310" y="-60" name="b.minus-60"/>
  <outline>
    <contour>
      <point x="25" y="-2" type="curve"/>
      <point x="67" y="-1"/>
      <point x="109" y="0"/>
      <point x="162" y="0" type="curve" smooth="yes"/>
      <point x="208" y="0"/>
      <point x="236" y="-1"/>
      <point x="279" y="-2" type="curve"/>
      <point x="285" y="4"/>
      <point x="285" y="26"/>
      <point x="279" y="32" type="curve"/>
      <point x="237" y="36"/>
      <point x="227" y="39"/>
      <point x="227" y="122" type="curve"/>
      <point x="97" y="122" type="line"/>
      <point x="97" y="39"/>
      <point x="86" y="37"/>
      <point x="25" y="32" type="curve"/>
      <point x="19" y="26"/>
      <point x="19" y="4"/>
    </contour>
    <contour>
      <point x="97" y="110" type="line"/>
      <point x="227" y="110" type="line"/>
      <point x="227" y="576" type="line" name=".sk1"/>
      <point x="227" y="627.375"/>
      <point x="228.078" y="655.678"/>
      <point x="231" y="681" type="curve"/>
      <point x="231" y="691.674"/>
      <point x="222.441" y="698"/>
      <point x="208" y="698" type="curve"/>
      <point x="178.764" y="686.306"/>
      <point x="94.6902" y="673.08"/>
      <point x="30" y="670" type="curve"/>
      <point x="28.3" y="664.9"/>
      <point x="29.5714" y="643.286"/>
      <point x="32" y="636" type="curve"/>
      <point x="84.6047" y="630.942"/>
      <point x="97" y="619.5"/>
      <point x="97" y="576" type="curve"/>
    </contour>
    <contour>
      <point x="212" y="209" type="line"/>
      <point x="268" y="209"/>
      <point x="291" y="200"/>
      <point x="303" y="180" type="curve" smooth="yes"/>
      <point x="365" y="78" type="line" smooth="yes"/>
      <point x="376" y="60"/>
      <point x="381" y="37"/>
      <point x="381" y="2" type="curve" smooth="yes"/>
      <point x="381" y="0"/>
      <point x="383" y="-2"/>
      <point x="386" y="-2" type="curve" smooth="yes"/>
      <point x="391" y="-2"/>
      <point x="428" y="0"/>
      <point x="463" y="0" type="curve" smooth="yes"/>
      <point x="504" y="0"/>
      <point x="560" y="-1"/>
      <point x="597" y="-2" type="curve"/>
      <point x="603" y="4"/>
      <point x="603" y="26"/>
      <point x="597" y="32" type="curve"/>
      <point x="558" y="36"/>
      <point x="536" y="33"/>
      <point x="506" y="78" type="curve" smooth="yes"/>
      <point x="390" y="249" type="line"/>
      <point x="387" y="253"/>
      <point x="385" y="258"/>
      <point x="385" y="262" type="curve" smooth="yes"/>
      <point x="385" y="264"/>
      <point x="386.755" y="268.731"/>
      <point x="390.085" y="272.394" type="curve" smooth="yes"/>
      <point x="437" y="324" type="line" smooth="yes"/>
      <point x="489.851" y="382.136"/>
      <point x="511" y="397"/>
      <point x="572" y="402" type="curve"/>
      <point x="578" y="408"/>
      <point x="578" y="430"/>
      <point x="572" y="436" type="curve"/>
      <point x="550" y="435"/>
      <point x="487" y="434"/>
      <point x="461" y="434" type="curve" smooth="yes"/>
      <point x="424" y="434"/>
      <point x="377" y="435"/>
      <point x="340" y="436" type="curve"/>
      <point x="334" y="430"/>
      <point x="334" y="408"/>
      <point x="340" y="402" type="curve"/>
      <point x="376" y="399"/>
      <point x="395" y="394"/>
      <point x="395" y="379" type="curve" smooth="yes"/>
      <point x="395" y="355"/>
      <point x="340" y="293"/>
      <point x="317" y="277" type="curve" smooth="yes"/>
      <point x="298" y="264"/>
      <point x="253" y="250"/>
      <point x="212" y="250" type="curve"/>
    </contour>
  </outline>
</glyph>
<glyph name="dotlessi" format="2">
  <advance width="312"/>
  <unicode hex="0131"/>
  <anchor x="136" y="500" name="top"/>
  <anchor x="178" y="-60" name="b.minus-60"/>
  <outline>
    <contour>
      <point x="25" y="-2" type="curve"/>
      <point x="67" y="-1"/>
      <point x="114" y="0"/>
      <point x="167" y="0" type="curve"/>
      <point x="167" y="122" type="line"/>
      <point x="97" y="122" type="line"/>
      <point x="97" y="39"/>
      <point x="86" y="35"/>
      <point x="25" y="32" type="curve"/>
      <point x="19" y="26"/>
      <point x="19" y="4"/>
    </contour>
    <contour>
      <point x="97" y="322" type="curve"/>
      <point x="227" y="322" type="line"/>
      <point x="227" y="373.375"/>
      <point x="228.078" y="401.678"/>
      <point x="231" y="427" type="curve"/>
      <point x="231" y="437.674"/>
      <point x="222.441" y="444"/>
      <point x="208" y="444" type="curve"/>
      <point x="178.764" y="432.306"/>
      <point x="94.6902" y="419.08"/>
      <point x="30" y="416" type="curve"/>
      <point x="28.3" y="410.9"/>
      <point x="29.5714" y="389.286"/>
      <point x="32" y="382" type="curve"/>
      <point x="84.6047" y="376.942"/>
      <point x="97" y="365.5"/>
    </contour>
    <contour>
      <point x="97" y="110" type="line"/>
      <point x="227" y="110" type="line"/>
      <point x="227" y="322" type="line" name=".sk1"/>
      <point x="227" y="373.375"/>
      <point x="228.078" y="401.678"/>
      <point x="231" y="427" type="curve"/>
      <point x="231" y="437.674"/>
      <point x="222.441" y="444"/>
      <point x="208" y="444" type="curve"/>
      <point x="178.764" y="432.306"/>
      <point x="94.6902" y="419.08"/>
      <point x="30" y="416" type="curve"/>
      <point x="28.3" y="410.9"/>
      <point x="29.5714" y="389.286"/>
      <point x="32" y="382" type="curve"/>
      <point x="84.6047" y="376.942"/>
      <point x="97" y="365.5"/>
      <point x="97" y="322" type="curve"/>
    </contour>
    <contour>
      <point x="157" y="0" type="line"/>
      <point x="202" y="-1"/>
      <point x="254" y="-1"/>
      <point x="299" y="-2" type="curve"/>
      <point x="305" y="4"/>
      <point x="305" y="26"/>
      <point x="299" y="32" type="curve"/>
      <point x="238" y="35"/>
      <point x="227" y="39"/>
      <point x="227" y="122" type="curve"/>
      <point x="157" y="122" type="line"/>
    </contour>
  </outline>
</glyph>
<glyph name="ldot" format="2">
  <advance width="399"/>
  <unicode hex="0140"/>
  <outline>
    <component base="l"/>
    <contour>
      <point x="262" y="386" type="curve" smooth="yes"/>
      <point x="262" y="353"/>
      <point x="286" y="320"/>
      <point x="326" y="320" type="curve" smooth="yes"/>
      <point x="371" y="320"/>
      <point x="397" y="356"/>
      <point x="397" y="382" type="curve" smooth="yes"/>
      <point x="397" y="412"/>
      <point x="374" y="448"/>
      <point x="332" y="448" type="curve" smooth="yes"/>
      <point x="285" y="448"/>
      <point x="262" y="416"/>
    </contour>
  </outline>
</glyph>
<glyph name="Tbar" format="2">
  <advance width="652"/>
  <unicode hex="0166"/>
  <outline>
    <component base="T"/>
    <contour>
      <point x="314" y="316" type="line"/>
      <point x="314" y="364" type="line"/>
      <point x="187" y="364" type="line" smooth="yes"/>
      <point x="178" y="364"/>
      <point x="162" y="354"/>
      <point x="162" y="333" type="curve" smooth="yes"/>
      <point x="162" y="325"/>
      <point x="165" y="316"/>
      <point x="172" y="316" type="curve" smooth="yes"/>
    </contour>
    <contour>
      <point x="343" y="316" type="line"/>
      <point x="478" y="316" type="line" smooth="yes"/>
      <point x="489" y="316"/>
      <point x="503" y="328"/>
      <point x="503" y="345" type="curve" smooth="yes"/>
      <point x="503" y="354"/>
      <point x="500" y="364"/>
      <point x="493" y="364" type="curve" smooth="yes"/>
      <point x="343" y="364" type="line"/>
    </contour>
  </outline>
</glyph>
<glyph name="longs" format="2">
  <advance width="334"/>
  <unicode hex="017F"/>
  <anchor x="239" y="740" name="top"/>
  <outline>
    <contour>
      <point x="223" y="127" type="curve" smooth="yes"/>
      <point x="223" y="485" type="line" smooth="yes"/>
      <point x="223" y="634"/>
      <point x="235" y="656"/>
      <point x="257" y="656" type="curve" smooth="yes"/>
      <point x="301.665" y="656"/>
      <point x="285.702" y="558"/>
      <point x="374" y="558" type="curve" smooth="yes"/>
      <point x="411" y="558"/>
      <point x="430" y="585"/>
      <point x="430" y="623" type="curve" smooth="yes"/>
      <point x="430" y="672.582"/>
      <point x="377.267" y="696"/>
      <point x="315" y="696" type="curve" smooth="yes"/>
      <point x="169.135" y="696"/>
      <point x="93" y="612.086"/>
      <point x="93" y="470" type="curve" smooth="yes"/>
      <point x="93" y="126" type="line" smooth="yes"/>
      <point x="93" y="44"/>
      <point x="77" y="35"/>
      <point x="16" y="32" type="curve"/>
      <point x="10" y="26"/>
      <point x="10" y="4"/>
      <point x="16" y="-2" type="curve"/>
      <point x="58" y="-1"/>
      <point x="103" y="0"/>
      <point x="158" y="0" type="curve" smooth="yes"/>
      <point x="213" y="0"/>
      <point x="257" y="-1"/>
      <point x="300" y="-2" type="curve"/>
      <point x="306" y="4"/>
      <point x="306" y="26"/>
      <point x="300" y="32" type="curve"/>
      <point x="239" y="35"/>
      <point x="223" y="44"/>
    </contour>
    <contour>
      <point x="108.014" y="433.664" type="line"/>
      <point x="51" y="434" type="line" smooth="yes"/>
      <point x="34" y="434.1"/>
      <point x="28" y="422"/>
      <point x="28" y="414" type="curve" smooth="yes"/>
      <point x="28" y="389" type="line" smooth="yes"/>
      <point x="28" y="385"/>
      <point x="29" y="384"/>
      <point x="34" y="384" type="curve" smooth="yes"/>
      <point x="108" y="384" type="line"/>
    </contour>
  </outline>
</glyph>
<glyph name="uni0181" format="2">
  <advance width="766"/>
  <unicode hex="0181"/>
  <outline>
    <contour>
      <point x="290" y="523" type="line"/>
      <point x="290" y="645.072" type="line"/>
      <point x="238.415" y="644.328"/>
      <point x="218.426" y="647"/>
      <point x="166.792" y="647" type="curve" smooth="yes"/>
      <point x="74.4476" y="647"/>
      <point x="11.629" y="595.988"/>
      <point x="11.629" y="521" type="curve" smooth="yes"/>
      <point x="11.629" y="493.283"/>
      <point x="27.6201" y="468"/>
      <point x="56" y="468" type="curve" smooth="yes"/>
      <point x="82.2528" y="468"/>
      <point x="109" y="486.128"/>
      <point x="109" y="514" type="curve" smooth="yes"/>
      <point x="109" y="531"/>
      <point x="92" y="542"/>
      <point x="92" y="555" type="curve" smooth="yes"/>
      <point x="92" y="588.465"/>
      <point x="115.608" y="611"/>
      <point x="150.666" y="611" type="curve" smooth="yes"/>
      <point x="198.854" y="611"/>
      <point x="222" y="590.963"/>
      <point x="222" y="523" type="curve"/>
    </contour>
    <contour>
      <point x="222" y="122.002" type="line" name=".sk1"/>
      <point x="222" y="55.0016"/>
      <point x="202.556" y="35.0997"/>
      <point x="138.542" y="32.4265" type="curve"/>
      <point x="128.511" y="26.4777"/>
      <point x="128.399" y="4.47794"/>
      <point x="138.368" y="-1.57304" type="curve"/>
      <point x="180.373" y="-0.787482"/>
      <point x="253.377" y="-0.160195"/>
      <point x="291.376" y="-0.354204" type="curve"/>
      <point x="300.358" y="0"/>
      <point x="378.662" y="-2"/>
      <point x="457" y="-2" type="curve" smooth="yes"/>
      <point x="662" y="-2"/>
      <point x="728" y="84"/>
      <point x="728" y="186" type="curve" smooth="yes"/>
      <point x="728" y="274"/>
      <point x="684" y="331"/>
      <point x="578" y="359" type="curve"/>
      <point x="578" y="361" type="line"/>
      <point x="632" y="385"/>
      <point x="674" y="440"/>
      <point x="674" y="491" type="curve" smooth="yes"/>
      <point x="674" y="560"/>
      <point x="637" y="647"/>
      <point x="435" y="647" type="curve" smooth="yes"/>
      <point x="385" y="647"/>
      <point x="322" y="645"/>
      <point x="290" y="645" type="curve" smooth="yes"/>
      <point x="222" y="645.45" type="line"/>
    </contour>
    <contour>
      <point x="362" y="334" type="line"/>
      <point x="433" y="334" type="line" smooth="yes"/>
      <point x="536" y="334"/>
      <point x="581" y="273"/>
      <point x="581" y="187" type="curve" smooth="yes"/>
      <point x="581" y="127"/>
      <point x="560" y="40"/>
      <point x="428" y="40" type="curve" smooth="yes"/>
      <point x="368" y="40"/>
      <point x="362" y="55"/>
      <point x="362" y="84" type="curve" smooth="yes"/>
    </contour>
    <contour>
      <point x="362" y="376" type="line"/>
      <point x="362" y="562" type="line" smooth="yes"/>
      <point x="362" y="591"/>
      <point x="367" y="605"/>
      <point x="432" y="605" type="curve" smooth="yes"/>
      <point x="478" y="605"/>
      <point x="534" y="587"/>
      <point x="534" y="489" type="curve" smooth="yes"/>
      <point x="534" y="409"/>
      <point x="489" y="376"/>
      <point x="418" y="376" type="curve" smooth="yes"/>
    </contour>
  </outline>
</glyph>
<glyph name="uni019B" format="2">
  <advance width="547"/>
  <unicode hex="019B"/>
  <outline>
    <component base="lambda"/>
    <contour>
      <point x="276.074" y="514.389" type="line"/>
      <point x="396" y="585" type="line"/>
      <point x="370" y="629" type="line"/>
      <point x="255.346" y="562.98" type="line"/>
    </contour>
    <contour>
      <point x="131" y="430" type="line"/>
      <point x="246.795" y="495.973" type="line"/>
      <point x="224.879" y="544.75" type="line"/>
      <point x="105" y="474" type="line"/>
    </contour>
  </outline>
</glyph>
<glyph name="uni019E" format="2">
  <advance width="615"/>
  <unicode hex="019E"/>
  <outline>
    <contour>
      <point x="205.158" y="325.167" type="line"/>
      <point x="240.917" y="352.025"/>
      <point x="283.352" y="370"/>
      <point x="311" y="370" type="curve" smooth="yes"/>
      <point x="359.043" y="370"/>
      <point x="391" y="333.649"/>
      <point x="391" y="279" type="curve" smooth="yes"/>
      <point x="391" y="-120" type="line"/>
      <point x="521" y="-120" type="line"/>
      <point x="521" y="284" type="line" smooth="yes"/>
      <point x="521" y="388.855"/>
      <point x="473.438" y="444"/>
      <point x="383" y="444" type="curve" smooth="yes"/>
      <point x="341.853" y="444"/>
      <point x="280.584" y="419.141"/>
      <point x="230.192" y="382" type="curve"/>
      <point x="204.8" y="382" type="line"/>
    </contour>
    <contour>
      <point x="98" y="0" type="line"/>
      <point x="228" y="0" type="line"/>
      <point x="228" y="372.345" type="line"/>
      <point x="225.29" y="372.146" type="line"/>
      <point x="227.055" y="398.587"/>
      <point x="229.377" y="415"/>
      <point x="232" y="427" type="curve"/>
      <point x="232" y="439.584"/>
      <point x="225.787" y="444"/>
      <point x="215.292" y="444" type="curve"/>
      <point x="177.18" y="433"/>
      <point x="98" y="420.262"/>
      <point x="31" y="416" type="curve"/>
      <point x="29" y="410"/>
      <point x="31" y="388"/>
      <point x="33" y="382" type="curve"/>
      <point x="85.559" y="376.994"/>
      <point x="98" y="359.172"/>
      <point x="98" y="314" type="curve"/>
    </contour>
    <contour>
      <point x="26" y="-2" type="curve"/>
      <point x="68" y="-1"/>
      <point x="110" y="0"/>
      <point x="163" y="0" type="curve" smooth="yes"/>
      <point x="209" y="0"/>
      <point x="237" y="-1"/>
      <point x="280" y="-2" type="curve"/>
      <point x="286" y="4"/>
      <point x="286" y="26"/>
      <point x="280" y="32" type="curve"/>
      <point x="238" y="36"/>
      <point x="228" y="39"/>
      <point x="228" y="122" type="curve"/>
      <point x="98" y="122" type="line"/>
      <point x="98" y="39"/>
      <point x="87" y="37"/>
      <point x="26" y="32" type="curve"/>
      <point x="20" y="26"/>
      <point x="20" y="4"/>
    </contour>
    <contour>
      <point x="319" y="-233.617" type="curve"/>
      <point x="361" y="-232.617"/>
      <point x="403" y="-231.617"/>
      <point x="456" y="-231.617" type="curve" smooth="yes"/>
      <point x="502" y="-231.617"/>
      <point x="530" y="-232.617"/>
      <point x="573" y="-233.617" type="curve"/>
      <point x="579" y="-227.617"/>
      <point x="579" y="-205.617"/>
      <point x="573" y="-199.617" type="curve"/>
      <point x="531" y="-195.617"/>
      <point x="521" y="-192.617"/>
      <point x="521" y="-109.617" type="curve"/>
      <point x="391" y="-109.617" type="line"/>
      <point x="391" y="-192.617"/>
      <point x="380" y="-194.617"/>
      <point x="319" y="-199.617" type="curve"/>
      <point x="313" y="-205.617"/>
      <point x="313" y="-227.617"/>
    </contour>
  </outline>
</glyph>
<glyph name="uni01A7" format="2">
  <advance width="479"/>
  <unicode hex="01A7"/>
  <outline>
    <contour>
      <point x="58" y="631" type="curve"/>
      <point x="51" y="573"/>
      <point x="47" y="532"/>
      <point x="47" y="479" type="curve"/>
      <point x="58" y="470"/>
      <point x="83" y="470"/>
      <point x="97" y="474" type="curve"/>
      <point x="115" y="540"/>
      <point x="143" y="617"/>
      <point x="228" y="617" type="curve" smooth="yes"/>
      <point x="279" y="617"/>
      <point x="313" y="583"/>
      <point x="313" y="527" type="curve" smooth="yes"/>
      <point x="313" y="474.905"/>
      <point x="268.775" y="436.532"/>
      <point x="171.036" y="379.108" type="curve" smooth="yes"/>
      <point x="98.6636" y="336.587"/>
      <point x="16" y="278.504"/>
      <point x="16" y="184" type="curve"/>
      <point x="16" y="68.2734"/>
      <point x="127.141" y="-10"/>
      <point x="235" y="-10" type="curve"/>
      <point x="298.545" y="-10"/>
      <point x="369.829" y="3.11087"/>
      <point x="431.652" y="5.52637" type="curve"/>
      <point x="442.652" y="42.5264"/>
      <point x="452" y="100"/>
      <point x="452" y="175" type="curve"/>
      <point x="446.677" y="178.093"/>
      <point x="420.696" y="181.642"/>
      <point x="402" y="178" type="curve"/>
      <point x="382" y="87"/>
      <point x="313" y="32"/>
      <point x="246" y="32" type="curve"/>
      <point x="185" y="32"/>
      <point x="142" y="66"/>
      <point x="142" y="115" type="curve"/>
      <point x="142" y="190.71"/>
      <point x="218.287" y="235.927"/>
      <point x="276.706" y="266.814" type="curve" smooth="yes"/>
      <point x="378.075" y="320.409"/>
      <point x="438" y="369.795"/>
      <point x="438" y="485" type="curve" smooth="yes"/>
      <point x="438" y="593.894"/>
      <point x="324.597" y="658"/>
      <point x="227" y="658" type="curve" smooth="yes"/>
      <point x="147.238" y="658"/>
      <point x="113" y="639"/>
    </contour>
  </outline>
</glyph>
<glyph name="uni01A8" format="2">
  <advance width="395"/>
  <unicode hex="01A8"/>
  <outline>
    <contour>
      <point x="28" y="119" type="curve" smooth="yes"/>
      <point x="28" y="24"/>
      <point x="134" y="-10"/>
      <point x="211" y="-10" type="curve" smooth="yes"/>
      <point x="248.09" y="-10"/>
      <point x="284.292" y="2"/>
      <point x="321" y="2" type="curve" smooth="yes"/>
      <point x="333.125" y="2"/>
      <point x="344.99" y="1.7157"/>
      <point x="357" y="0" type="curve"/>
      <point x="367" y="54"/>
      <point x="367" y="84.2667"/>
      <point x="367" y="146" type="curve"/>
      <point x="351" y="150"/>
      <point x="343" y="151"/>
      <point x="327" y="148" type="curve"/>
      <point x="314.253" y="84.2667"/>
      <point x="292.142" y="29"/>
      <point x="218" y="29" type="curve" smooth="yes"/>
      <point x="191" y="29"/>
      <point x="154" y="46"/>
      <point x="154" y="78" type="curve" smooth="yes"/>
      <point x="154" y="102"/>
      <point x="165.457" y="135.018"/>
      <point x="205" y="154" type="curve" smooth="yes"/>
      <point x="265.625" y="183.102"/>
      <point x="351" y="235.219"/>
      <point x="351" y="310" type="curve" smooth="yes"/>
      <point x="351" y="397.659"/>
      <point x="259.346" y="444"/>
      <point x="183" y="444" type="curve" smooth="yes"/>
      <point x="128" y="444"/>
      <point x="83" y="426"/>
      <point x="54" y="420" type="curve"/>
      <point x="54" y="385"/>
      <point x="54" y="350"/>
      <point x="58" y="314" type="curve"/>
      <point x="68" y="307"/>
      <point x="79" y="306"/>
      <point x="97" y="309" type="curve"/>
      <point x="117" y="379"/>
      <point x="143" y="402"/>
      <point x="188" y="402" type="curve" smooth="yes"/>
      <point x="217" y="402"/>
      <point x="240" y="390"/>
      <point x="240" y="362" type="curve" smooth="yes"/>
      <point x="240" y="333"/>
      <point x="224.908" y="304.214"/>
      <point x="185" y="287" type="curve" smooth="yes"/>
      <point x="111.341" y="255.228"/>
      <point x="28" y="210.65"/>
    </contour>
  </outline>
</glyph>
<glyph name="uni01A9" format="2">
  <advance width="592"/>
  <unicode hex="01A9"/>
  <outline>
    <contour>
      <point x="529" y="645" type="curve" smooth="yes"/>
      <point x="147" y="645" type="line" smooth="yes"/>
      <point x="106.988" y="645"/>
      <point x="30.5" y="646.9"/>
      <point x="22" y="647" type="curve"/>
      <point x="16" y="641"/>
      <point x="16" y="619"/>
      <point x="22" y="613" type="curve"/>
      <point x="34" y="604"/>
      <point x="49.4331" y="588.383"/>
      <point x="60" y="576" type="curve" smooth="yes"/>
      <point x="316" y="276" type="line"/>
      <point x="123" y="111" type="line" smooth="yes"/>
      <point x="97.5056" y="88.055"/>
      <point x="50.6063" y="51.4556"/>
      <point x="21" y="33" type="curve"/>
      <point x="15" y="27"/>
      <point x="15" y="4"/>
      <point x="21" y="-2" type="curve"/>
      <point x="61.6081" y="-0.0976"/>
      <point x="102.388" y="0"/>
      <point x="143" y="0" type="curve" smooth="yes"/>
      <point x="440" y="0" type="line" smooth="yes"/>
      <point x="488" y="0"/>
      <point x="542.134" y="0"/>
      <point x="578" y="-2" type="curve"/>
      <point x="592" y="48"/>
      <point x="607" y="144"/>
      <point x="615" y="195" type="curve"/>
      <point x="605" y="201"/>
      <point x="583" y="203"/>
      <point x="570" y="200" type="curve"/>
      <point x="543" y="112"/>
      <point x="484.998" y="109.153"/>
      <point x="419" y="108" type="curve" smooth="yes"/>
      <point x="190" y="104" type="line"/>
      <point x="453" y="325" type="line"/>
      <point x="452.685" y="340.725" type="line"/>
      <point x="230" y="598" type="line"/>
      <point x="433" y="598" type="line" smooth="yes"/>
      <point x="495.455" y="598"/>
      <point x="519" y="545"/>
      <point x="541" y="476" type="curve"/>
      <point x="553" y="474"/>
      <point x="574" y="476"/>
      <point x="584" y="481" type="curve"/>
      <point x="586" y="526"/>
      <point x="582.87" y="636.261"/>
      <point x="582" y="646" type="curve"/>
      <point x="582" y="648"/>
      <point x="581" y="649"/>
      <point x="578" y="649" type="curve"/>
      <point x="561" y="646"/>
      <point x="553" y="645"/>
    </contour>
  </outline>
</glyph>
<glyph name="uni01AE" format="2">
  <advance width="652"/>
  <unicode hex="01AE"/>
  <outline>
    <contour>
      <point x="265" y="123" type="line"/>
      <point x="405" y="123" type="line"/>
      <point x="405" y="503" type="line" smooth="yes"/>
      <point x="405" y="574.522"/>
      <point x="418.426" y="604"/>
      <point x="451" y="604" type="curve" smooth="yes"/>
      <point x="473" y="604" type="line" smooth="yes"/>
      <point x="548" y="604"/>
      <point x="590" y="579"/>
      <point x="607" y="502" type="curve"/>
      <point x="618" y="502"/>
      <point x="637" y="503"/>
      <point x="646" y="507" type="curve"/>
      <point x="639" y="553"/>
      <point x="634" y="605"/>
      <point x="633" y="650" type="curve"/>
      <point x="633" y="651"/>
      <point x="631" y="653"/>
      <point x="630" y="653" type="curve"/>
      <point x="596" y="650"/>
      <point x="485" y="645"/>
      <point x="406" y="645" type="curve" smooth="yes"/>
      <point x="265" y="645" type="line" smooth="yes"/>
      <point x="188" y="645"/>
      <point x="70" y="650"/>
      <point x="32" y="653" type="curve"/>
      <point x="30" y="653"/>
      <point x="28" y="651"/>
      <point x="28" y="650" type="curve"/>
      <point x="24" y="605"/>
      <point x="14" y="552"/>
      <point x="3" y="504" type="curve"/>
      <point x="13" y="500"/>
      <point x="30" y="499"/>
      <point x="42" y="499" type="curve"/>
      <point x="62" y="579"/>
      <point x="103" y="604"/>
      <point x="169" y="604" type="curve" smooth="yes"/>
      <point x="218" y="604" type="line" smooth="yes"/>
      <point x="251.128" y="604"/>
      <point x="265" y="575.074"/>
      <point x="265" y="506" type="curve" smooth="yes"/>
    </contour>
    <contour>
      <point x="265" y="149.5" type="line"/>
      <point x="265" y="61.4402" type="line" smooth="yes"/>
      <point x="265" y="-85.312"/>
      <point x="327.846" y="-187"/>
      <point x="447.166" y="-187" type="curve" smooth="yes"/>
      <point x="534.855" y="-187"/>
      <point x="596" y="-158.656"/>
      <point x="596" y="-111.919" type="curve" smooth="yes"/>
      <point x="596" y="-83.3043"/>
      <point x="571.863" y="-60"/>
      <point x="538" y="-60" type="curve" smooth="yes"/>
      <point x="480.332" y="-60"/>
      <point x="489.454" y="-128"/>
      <point x="447.166" y="-128" type="curve" smooth="yes"/>
      <point x="419.017" y="-128"/>
      <point x="405" y="-66.8158"/>
      <point x="405" y="-12" type="curve" smooth="yes"/>
      <point x="405" y="149.5" type="line"/>
    </contour>
  </outline>
</glyph>
<glyph name="uni01B3" format="2">
  <advance width="687"/>
  <unicode hex="01B3"/>
  <outline>
    <contour>
      <point x="311" y="122" type="line" name=".sk1"/>
      <point x="311" y="55"/>
      <point x="292" y="35"/>
      <point x="228" y="32" type="curve"/>
      <point x="218" y="26"/>
      <point x="218" y="4"/>
      <point x="228" y="-2" type="curve"/>
      <point x="270" y="-1"/>
      <point x="343" y="0"/>
      <point x="381" y="0" type="curve"/>
      <point x="381" y="0" type="line" name=".sk2"/>
      <point x="419" y="0"/>
      <point x="492" y="-1"/>
      <point x="534" y="-2" type="curve"/>
      <point x="544" y="4"/>
      <point x="544" y="26"/>
      <point x="534" y="32" type="curve"/>
      <point x="470" y="35"/>
      <point x="451" y="55"/>
      <point x="451" y="122" type="curve"/>
      <point x="451" y="293" type="line"/>
      <point x="595" y="565" type="line" smooth="yes"/>
      <point x="615.783" y="604.257"/>
      <point x="637" y="609"/>
      <point x="682" y="613" type="curve"/>
      <point x="688" y="619"/>
      <point x="688" y="641"/>
      <point x="682" y="647" type="curve"/>
      <point x="652" y="646"/>
      <point x="612" y="645"/>
      <point x="589" y="645" type="curve" smooth="yes"/>
      <point x="566" y="645"/>
      <point x="518" y="646"/>
      <point x="478" y="647" type="curve"/>
      <point x="472" y="641"/>
      <point x="472" y="619"/>
      <point x="478" y="613" type="curve"/>
      <point x="512.501" y="610.648"/>
      <point x="534.091" y="600.302"/>
      <point x="534.091" y="581.482" type="curve" smooth="yes"/>
      <point x="534.091" y="576.301"/>
      <point x="532.388" y="570.511"/>
      <point x="529" y="564" type="curve" smooth="yes"/>
      <point x="414" y="343" type="line"/>
      <point x="323.883" y="502" type="line" smooth="yes"/>
      <point x="284.096" y="572.199"/>
      <point x="220.662" y="659"/>
      <point x="131" y="659" type="curve" smooth="yes"/>
      <point x="49.1872" y="659"/>
      <point x="-6" y="624.357"/>
      <point x="-6" y="573" type="curve" smooth="yes"/>
      <point x="-6" y="547"/>
      <point x="25" y="536"/>
      <point x="47" y="536" type="curve" smooth="yes"/>
      <point x="88" y="536"/>
      <point x="98" y="556"/>
      <point x="98" y="576" type="curve" smooth="yes"/>
      <point x="98" y="584"/>
      <point x="95" y="592"/>
      <point x="95" y="600" type="curve" smooth="yes"/>
      <point x="95" y="614"/>
      <point x="98" y="617"/>
      <point x="102" y="617" type="curve" smooth="yes"/>
      <point x="117.245" y="617"/>
      <point x="168.823" y="532.9"/>
      <point x="226" y="432" type="curve" smooth="yes"/>
      <point x="311" y="282" type="line"/>
    </contour>
  </outline>
</glyph>
<glyph name="uni01E4" format="2">
  <advance width="737"/>
  <unicode hex="01E4"/>
  <outline>
    <component base="G"/>
    <contour>
      <point x="585" y="156" type="line"/>
      <point x="585" y="204" type="line"/>
      <point x="458" y="204" type="line" smooth="yes"/>
      <point x="449" y="204"/>
      <point x="433" y="194"/>
      <point x="433" y="173" type="curve" smooth="yes"/>
      <point x="433" y="165"/>
      <point x="436" y="156"/>
      <point x="443" y="156" type="curve" smooth="yes"/>
    </contour>
    <contour>
      <point x="580" y="156" type="line"/>
      <point x="715" y="156" type="line" smooth="yes"/>
      <point x="726" y="156"/>
      <point x="740" y="168"/>
      <point x="740" y="185" type="curve" smooth="yes"/>
      <point x="740" y="194"/>
      <point x="737" y="204"/>
      <point x="730" y="204" type="curve" smooth="yes"/>
      <point x="580" y="204" type="line"/>
    </contour>
  </outline>
</glyph>
<glyph name="uni01E5" format="2">
  <advance width="521"/>
  <unicode hex="01E5"/>
  <outline>
    <component base="g"/>
    <contour>
      <point x="89" y="-133" type="line"/>
      <point x="430.5" y="-133" type="line"/>
      <point x="430.5" y="-85" type="line"/>
      <point x="89" y="-85" type="line"/>
    </contour>
    <contour>
      <point x="138" y="-133" type="line"/>
      <point x="138" y="-85" type="line"/>
      <point x="11" y="-85" type="line" smooth="yes"/>
      <point x="2" y="-85"/>
      <point x="-14" y="-95"/>
      <point x="-14" y="-116" type="curve" smooth="yes"/>
      <point x="-14" y="-124"/>
      <point x="-11" y="-133"/>
      <point x="-4" y="-133" type="curve" smooth="yes"/>
    </contour>
    <contour>
      <point x="378" y="-133" type="line"/>
      <point x="513" y="-133" type="line" smooth="yes"/>
      <point x="524" y="-133"/>
      <point x="538" y="-121"/>
      <point x="538" y="-104" type="curve" smooth="yes"/>
      <point x="538" y="-95"/>
      <point x="535" y="-85"/>
      <point x="528" y="-85" type="curve" smooth="yes"/>
      <point x="378" y="-85" type="line"/>
    </contour>
  </outline>
</glyph>
<glyph name="uni0235" format="2">
  <advance width="690"/>
  <unicode hex="0235"/>
  <outline>
    <contour>
      <point x="358" y="291" type="curve" smooth="yes"/>
      <point x="358" y="117" type="line" smooth="yes"/>
      <point x="358" y="111"/>
      <point x="358" y="105"/>
      <point x="359" y="99" type="curve" smooth="yes"/>
      <point x="367" y="55"/>
      <point x="402" y="26"/>
      <point x="430" y="11" type="curve"/>
      <point x="382" y="-74" type="line"/>
      <point x="433" y="-99" type="line"/>
      <point x="446" y="-73"/>
      <point x="467" y="-34"/>
      <point x="483" y="-6" type="curve"/>
      <point x="493" y="-8"/>
      <point x="504" y="-8"/>
      <point x="517" y="-8" type="curve"/>
      <point x="517" y="-8"/>
      <point x="517" y="-8"/>
      <point x="517" y="-8" type="curve"/>
      <point x="580" y="-8"/>
      <point x="666" y="39"/>
      <point x="677" y="107" type="curve"/>
      <point x="678" y="112"/>
      <point x="678" y="116"/>
      <point x="678" y="121" type="curve" smooth="yes"/>
      <point x="678" y="144"/>
      <point x="663" y="177"/>
      <point x="619" y="185" type="curve"/>
      <point x="612" y="186"/>
      <point x="606" y="187"/>
      <point x="598" y="187" type="curve" smooth="yes"/>
      <point x="545" y="187"/>
      <point x="508" y="144"/>
      <point x="480" y="99" type="curve"/>
      <point x="478" y="114"/>
      <point x="476" y="133"/>
      <point x="475" y="160" type="curve"/>
      <point x="475" y="165"/>
      <point x="475" y="171"/>
      <point x="475" y="177" type="curve" smooth="yes"/>
      <point x="475" y="271" type="line" smooth="yes"/>
      <point x="475" y="275"/>
      <point x="475" y="280"/>
      <point x="475" y="284" type="curve" smooth="yes"/>
      <point x="475" y="335"/>
      <point x="468" y="380"/>
      <point x="442" y="409" type="curve"/>
      <point x="423" y="432"/>
      <point x="392" y="445"/>
      <point x="345" y="445" type="curve" smooth="yes"/>
      <point x="301" y="445"/>
      <point x="261" y="438"/>
      <point x="217" y="404" type="curve" smooth="yes"/>
      <point x="213" y="401"/>
      <point x="208" y="397"/>
      <point x="204" y="393" type="curve"/>
      <point x="205" y="406"/>
      <point x="205" y="419"/>
      <point x="206" y="432" type="curve"/>
      <point x="206" y="436"/>
      <point x="206" y="441"/>
      <point x="206" y="445" type="curve"/>
      <point x="169" y="445" type="line" smooth="yes"/>
      <point x="154" y="445"/>
      <point x="145" y="442"/>
      <point x="133" y="436" type="curve"/>
      <point x="102" y="419"/>
      <point x="68" y="414"/>
      <point x="21" y="405" type="curve"/>
      <point x="23" y="393"/>
      <point x="25" y="381"/>
      <point x="27" y="369" type="curve"/>
      <point x="60" y="375"/>
      <point x="77" y="378"/>
      <point x="88" y="378" type="curve"/>
      <point x="88" y="118" type="line" smooth="yes"/>
      <point x="88" y="104"/>
      <point x="88" y="89"/>
      <point x="88" y="75" type="curve" smooth="yes"/>
      <point x="88" y="49"/>
      <point x="84" y="35"/>
      <point x="67" y="35" type="curve" smooth="yes"/>
      <point x="61" y="35"/>
      <point x="55" y="35"/>
      <point x="49" y="35" type="curve" smooth="yes"/>
      <point x="30" y="35"/>
      <point x="20" y="31"/>
      <point x="20" y="23" type="curve" smooth="yes"/>
      <point x="20" y="18"/>
      <point x="20" y="13"/>
      <point x="20" y="8" type="curve"/>
      <point x="23" y="5"/>
      <point x="26" y="2"/>
      <point x="29" y="-1" type="curve"/>
      <point x="29" y="-1"/>
      <point x="110" y="1"/>
      <point x="146" y="1" type="curve" smooth="yes"/>
      <point x="184" y="1"/>
      <point x="261" y="-1"/>
      <point x="261" y="-1" type="curve"/>
      <point x="264" y="2"/>
      <point x="268" y="5"/>
      <point x="271" y="8" type="curve"/>
      <point x="271" y="13"/>
      <point x="271" y="18"/>
      <point x="271" y="23" type="curve" smooth="yes"/>
      <point x="271" y="31"/>
      <point x="256" y="35"/>
      <point x="240" y="35" type="curve" smooth="yes"/>
      <point x="236" y="35"/>
      <point x="231" y="35"/>
      <point x="227" y="35" type="curve" smooth="yes"/>
      <point x="211" y="35"/>
      <point x="206" y="49"/>
      <point x="206" y="75" type="curve" smooth="yes"/>
      <point x="206" y="89"/>
      <point x="206" y="104"/>
      <point x="206" y="118" type="curve" smooth="yes"/>
      <point x="206" y="289" type="line" smooth="yes"/>
      <point x="206" y="299"/>
      <point x="206" y="308"/>
      <point x="206" y="318" type="curve"/>
      <point x="200" y="315" type="line"/>
      <point x="250" y="373"/>
      <point x="283" y="389"/>
      <point x="316" y="389" type="curve" smooth="yes"/>
      <point x="337" y="389"/>
      <point x="348" y="377"/>
      <point x="354" y="352" type="curve"/>
      <point x="357" y="337"/>
      <point x="358" y="317"/>
    </contour>
    <contour>
      <point x="587" y="152" type="curve" smooth="yes"/>
      <point x="597" y="152"/>
      <point x="605" y="140"/>
      <point x="605" y="122" type="curve" smooth="yes"/>
      <point x="605" y="83"/>
      <point x="569" y="49"/>
      <point x="540" y="44" type="curve"/>
      <point x="538" y="43"/>
      <point x="535" y="43"/>
      <point x="533" y="43" type="curve" smooth="yes"/>
      <point x="525" y="43"/>
      <point x="517" y="45"/>
      <point x="510" y="49" type="curve"/>
      <point x="556" y="127"/>
      <point x="573" y="152"/>
    </contour>
  </outline>
</glyph>
<glyph name="uni023B" format="2">
  <advance width="646"/>
  <unicode hex="023B"/>
  <outline>
    <contour>
      <point x="242" y="141" type="curve"/>
      <point x="508" y="588" type="line"/>
      <point x="557" y="557"/>
      <point x="581" y="507"/>
      <point x="597" y="453" type="curve"/>
      <point x="609" y="449"/>
      <point x="629" y="452"/>
      <point x="640" y="458" type="curve"/>
      <point x="635" y="510"/>
      <point x="627" y="558"/>
      <point x="618" y="613" type="curve"/>
      <point x="593" y="615"/>
      <point x="570" y="626"/>
      <point x="538" y="637" type="curve"/>
      <point x="574" y="698" type="line"/>
      <point x="523" y="698" type="line"/>
      <point x="494" y="649" type="line"/>
      <point x="468" y="654"/>
      <point x="437" y="658"/>
      <point x="399" y="658" type="curve" smooth="yes"/>
      <point x="306" y="658"/>
      <point x="219" y="630"/>
      <point x="155" y="577" type="curve" smooth="yes"/>
      <point x="83" y="519"/>
      <point x="38" y="430"/>
      <point x="38" y="315" type="curve" smooth="yes"/>
      <point x="38" y="226"/>
      <point x="74" y="123"/>
      <point x="146" y="63" type="curve"/>
      <point x="43" y="-110" type="line"/>
      <point x="93" y="-110" type="line"/>
      <point x="181" y="38" type="line"/>
      <point x="234" y="7"/>
      <point x="296" y="-7"/>
      <point x="370" y="-10" type="curve"/>
      <point x="379" y="-10"/>
      <point x="388" y="-10"/>
      <point x="398" y="-10" type="curve" smooth="yes"/>
      <point x="495" y="-10"/>
      <point x="584" y="36"/>
      <point x="652" y="125" type="curve"/>
      <point x="647" y="134"/>
      <point x="630" y="146"/>
      <point x="619" y="146" type="curve"/>
      <point x="548" y="68"/>
      <point x="467" y="42"/>
      <point x="397" y="42" type="curve" smooth="yes"/>
      <point x="335" y="42"/>
      <point x="280" y="81"/>
    </contour>
    <contour>
      <point x="219" y="186" type="line"/>
      <point x="200" y="230"/>
      <point x="189" y="281"/>
      <point x="189" y="334" type="curve" smooth="yes"/>
      <point x="189" y="419"/>
      <point x="213" y="495"/>
      <point x="254" y="547" type="curve" smooth="yes"/>
      <point x="288" y="591"/>
      <point x="334" y="617"/>
      <point x="388" y="617" type="curve" smooth="yes"/>
      <point x="419" y="617"/>
      <point x="446" y="613"/>
      <point x="468" y="606" type="curve"/>
    </contour>
  </outline>
</glyph>
<glyph name="uni0241" format="2">
  <advance width="481"/>
  <unicode hex="0241"/>
  <outline>
    <contour>
      <point x="459" y="490" type="curve" smooth="yes"/>
      <point x="459" y="611.704"/>
      <point x="320.09" y="658"/>
      <point x="221" y="658" type="curve" smooth="yes"/>
      <point x="115" y="658"/>
      <point x="2" y="611"/>
      <point x="2" y="505" type="curve" smooth="yes"/>
      <point x="2" y="472.664"/>
      <point x="41.2659" y="456"/>
      <point x="69" y="456" type="curve" smooth="yes"/>
      <point x="99.8275" y="456"/>
      <point x="145" y="470.456"/>
      <point x="145" y="508" type="curve" smooth="yes"/>
      <point x="145" y="528.303"/>
      <point x="140.771" y="547.724"/>
      <point x="140.773" y="564.221" type="curve" smooth="yes"/>
      <point x="140.777" y="593.089"/>
      <point x="153.738" y="613"/>
      <point x="225" y="613" type="curve" smooth="yes"/>
      <point x="311" y="613"/>
      <point x="338" y="545"/>
      <point x="338" y="500" type="curve" smooth="yes"/>
      <point x="338" y="446"/>
      <point x="305" y="345"/>
      <point x="158" y="345" type="curve"/>
      <point x="158" y="122" type="line"/>
      <point x="298" y="122" type="line"/>
      <point x="298" y="203" type="line" smooth="yes"/>
      <point x="298" y="273"/>
      <point x="336.235" y="305.731"/>
      <point x="374" y="339" type="curve" smooth="yes"/>
      <point x="420.237" y="379.733"/>
      <point x="459" y="421"/>
    </contour>
  </outline>
</glyph>
<glyph name="uni0248" format="2">
  <advance width="352"/>
  <unicode hex="0248"/>
  <outline>
    <component base="J"/>
    <contour>
      <point x="168" y="229" type="line"/>
      <point x="168" y="277" type="line"/>
      <point x="41" y="277" type="line" smooth="yes"/>
      <point x="32" y="277"/>
      <point x="16" y="267"/>
      <point x="16" y="246" type="curve" smooth="yes"/>
      <point x="16" y="238"/>
      <point x="19" y="229"/>
      <point x="26" y="229" type="curve" smooth="yes"/>
    </contour>
    <contour>
      <point x="177" y="229" type="line"/>
      <point x="312" y="229" type="line" smooth="yes"/>
      <point x="323" y="229"/>
      <point x="337" y="241"/>
      <point x="337" y="258" type="curve" smooth="yes"/>
      <point x="337" y="267"/>
      <point x="334" y="277"/>
      <point x="327" y="277" type="curve" smooth="yes"/>
      <point x="177" y="277" type="line"/>
    </contour>
  </outline>
</glyph>
<glyph name="uni0298" format="2">
  <advance width="687"/>
  <unicode hex="0298"/>
  <outline>
    <contour>
      <point x="38" y="309" type="curve" smooth="yes"/>
      <point x="38" y="111"/>
      <point x="183.015" y="-10"/>
      <point x="342.497" y="-10" type="curve" smooth="yes"/>
      <point x="541.012" y="-10"/>
      <point x="649" y="142.769"/>
      <point x="649" y="329" type="curve" smooth="yes"/>
      <point x="649" y="528"/>
      <point x="512" y="658"/>
      <point x="341.494" y="658" type="curve" smooth="yes"/>
      <point x="148.275" y="658"/>
      <point x="38" y="486.9"/>
    </contour>
    <contour>
      <point x="178" y="329" type="curve" smooth="yes"/>
      <point x="178" y="533"/>
      <point x="247.209" y="616"/>
      <point x="329.458" y="616" type="curve" smooth="yes"/>
      <point x="429.761" y="616"/>
      <point x="509" y="511"/>
      <point x="509" y="308" type="curve" smooth="yes"/>
      <point x="509" y="142"/>
      <point x="454.836" y="32"/>
      <point x="360.552" y="32" type="curve" smooth="yes"/>
      <point x="258.242" y="32"/>
      <point x="178" y="141"/>
    </contour>
    <contour>
      <point x="274.792" y="321" type="curve" smooth="yes"/>
      <point x="274.792" y="286"/>
      <point x="301.874" y="254"/>
      <point x="342.998" y="254" type="curve" smooth="yes"/>
      <point x="379.957" y="254"/>
      <point x="411.204" y="284.037"/>
      <point x="411.204" y="321" type="curve" smooth="yes"/>
      <point x="411.204" y="359"/>
      <point x="377.101" y="388"/>
      <point x="342.998" y="388" type="curve" smooth="yes"/>
      <point x="305.886" y="388"/>
      <point x="274.792" y="356"/>
    </contour>
  </outline>
</glyph>
<glyph name="uni02A6" format="2">
  <advance width="605"/>
  <unicode hex="02A6"/>
  <outline>
    <contour>
      <point x="255" y="-10" type="line"/>
      <point x="382" y="-10" type="line" smooth="yes"/>
      <point x="458.42" y="-10"/>
      <point x="555" y="28"/>
      <point x="555" y="123" type="curve" smooth="yes"/>
      <point x="555" y="192.226"/>
      <point x="513.665" y="231.571"/>
      <point x="438.337" y="255.741" type="curve" smooth="yes"/>
      <point x="391.832" y="270.664"/>
      <point x="343" y="292.455"/>
      <point x="343" y="345" type="curve" smooth="yes"/>
      <point x="343" y="385"/>
      <point x="372" y="402"/>
      <point x="399" y="402" type="curve" smooth="yes"/>
      <point x="444" y="402"/>
      <point x="476" y="379"/>
      <point x="496" y="309" type="curve"/>
      <point x="508.969" y="305.536"/>
      <point x="518.953" y="308.08"/>
      <point x="530" y="314" type="curve"/>
      <point x="527" y="350"/>
      <point x="525.206" y="391.865"/>
      <point x="528.613" y="424.541" type="curve"/>
      <point x="491" y="424.541"/>
      <point x="451" y="444"/>
      <point x="396" y="444" type="curve" smooth="yes"/>
      <point x="305" y="444"/>
      <point x="240" y="390"/>
      <point x="240" y="321" type="curve" smooth="yes"/>
      <point x="240" y="258.538"/>
      <point x="306.154" y="219.21"/>
      <point x="361" y="193.283" type="curve" smooth="yes"/>
      <point x="406.187" y="171.922"/>
      <point x="444" y="154.047"/>
      <point x="444" y="98" type="curve" smooth="yes"/>
      <point x="444" y="58"/>
      <point x="410.569" y="30"/>
      <point x="354" y="30" type="curve" smooth="yes"/>
      <point x="255" y="30" type="line"/>
    </contour>
    <contour>
      <point x="63" y="434" type="line" smooth="yes"/>
      <point x="49" y="434"/>
      <point x="34" y="430"/>
      <point x="21" y="419" type="curve"/>
      <point x="21" y="390" type="line" smooth="yes"/>
      <point x="21" y="385"/>
      <point x="22" y="384"/>
      <point x="26" y="384" type="curve" smooth="yes"/>
      <point x="91" y="384" type="line"/>
      <point x="91" y="105" type="line" smooth="yes"/>
      <point x="91" y="32"/>
      <point x="127" y="-10"/>
      <point x="201" y="-10" type="curve" smooth="yes"/>
      <point x="322.302" y="-10" type="line"/>
      <point x="322.302" y="30" type="line"/>
      <point x="294.062" y="30" type="line" smooth="yes"/>
      <point x="247.634" y="30"/>
      <point x="221" y="57"/>
      <point x="221" y="107" type="curve" smooth="yes"/>
      <point x="221" y="384" type="line"/>
      <point x="322" y="384" type="line" smooth="yes"/>
      <point x="332" y="384"/>
      <point x="346" y="388"/>
      <point x="346" y="397" type="curve" smooth="yes"/>
      <point x="346" y="428" type="line" smooth="yes"/>
      <point x="346" y="432"/>
      <point x="343" y="434"/>
      <point x="338" y="434" type="curve" smooth="yes"/>
      <point x="221" y="434" type="line"/>
      <point x="222" y="468" type="line" smooth="yes"/>
      <point x="223.971" y="535"/>
      <point x="226" y="564"/>
      <point x="229" y="581" type="curve"/>
      <point x="229" y="587"/>
      <point x="226" y="590"/>
      <point x="221" y="590" type="curve" smooth="yes"/>
      <point x="209" y="590"/>
      <point x="108" y="558"/>
      <point x="102" y="550" type="curve" smooth="yes"/>
      <point x="95" y="541"/>
      <point x="91" y="514"/>
      <point x="91" y="434" type="curve"/>
    </contour>
  </outline>
</glyph>
<glyph name="uni02AE" format="2">
  <advance width="595"/>
  <unicode hex="02AE"/>
  <outline>
    <contour>
      <point x="403" y="-226" type="line"/>
      <point x="466" y="-226" type="line"/>
      <point x="509.794" y="-206.094"/>
      <point x="553.14" y="-201"/>
      <point x="601" y="-201" type="curve"/>
      <point x="599" y="-172" type="line" smooth="yes"/>
      <point x="598.651" y="-166.935"/>
      <point x="595.968" y="-163"/>
      <point x="589.04" y="-163" type="curve"/>
      <point x="578.465" y="-166"/>
      <point x="564.895" y="-167"/>
      <point x="549.994" y="-167" type="curve" smooth="yes"/>
      <point x="544.337" y="-167"/>
      <point x="533" y="-162.191"/>
      <point x="533" y="-145.109" type="curve" smooth="yes"/>
      <point x="533" y="0" type="line"/>
      <point x="403" y="0" type="line"/>
    </contour>
    <contour>
      <point x="250.859" y="168" type="curve" smooth="yes"/>
      <point x="250.859" y="221.906" type="line" smooth="yes"/>
      <point x="250.859" y="364.478"/>
      <point x="233.513" y="445"/>
      <point x="121" y="445" type="curve" smooth="yes"/>
      <point x="91.1819" y="445"/>
      <point x="10" y="431.268"/>
      <point x="10" y="393" type="curve" smooth="yes"/>
      <point x="10" y="358"/>
      <point x="45.6017" y="354"/>
      <point x="50.6017" y="354" type="curve" smooth="yes"/>
      <point x="67.4295" y="354"/>
      <point x="86.101" y="359.063"/>
      <point x="92.2774" y="376" type="curve" smooth="yes"/>
      <point x="99.9357" y="397"/>
      <point x="109.332" y="408"/>
      <point x="119" y="408" type="curve" smooth="yes"/>
      <point x="129.597" y="408"/>
      <point x="133.856" y="359.592"/>
      <point x="133.856" y="270.251" type="curve" smooth="yes"/>
      <point x="133.856" y="198" type="line" smooth="yes"/>
      <point x="133.856" y="89"/>
      <point x="140" y="-12"/>
      <point x="262" y="-12" type="curve" smooth="yes"/>
      <point x="299" y="-12"/>
      <point x="349" y="-2"/>
      <point x="403" y="38" type="curve"/>
      <point x="403" y="0" type="line"/>
      <point x="533" y="0" type="line"/>
      <point x="533" y="312" type="line"/>
      <point x="403" y="312" type="line"/>
      <point x="403" y="93.6069" type="line"/>
      <point x="409" y="113" type="line"/>
      <point x="363" y="67"/>
      <point x="325" y="42"/>
      <point x="306" y="42" type="curve" smooth="yes"/>
      <point x="262" y="42"/>
      <point x="250.859" y="102"/>
    </contour>
    <contour>
      <point x="331" y="436" type="curve"/>
      <point x="325" y="429.75"/>
      <point x="325" y="408.375"/>
      <point x="331" y="402" type="curve"/>
      <point x="392" y="399"/>
      <point x="403" y="395"/>
      <point x="403" y="312" type="curve"/>
      <point x="533" y="312" type="line"/>
      <point x="533" y="395"/>
      <point x="544" y="399"/>
      <point x="605" y="402" type="curve"/>
      <point x="611" y="408.375"/>
      <point x="611" y="429.75"/>
      <point x="605" y="436" type="curve"/>
      <point x="559.79" y="435"/>
      <point x="513.214" y="434.304"/>
      <point x="468" y="434" type="curve" smooth="yes"/>
      <point x="415.001" y="433.644"/>
      <point x="373" y="435"/>
    </contour>
  </outline>
</glyph>
<glyph name="uni0310" format="2">
  <unicode hex="0310"/>
  <anchor x="-274" y="500" name="_top"/>
  <outline>
    <contour>
      <point x="-382" y="653" type="curve"/>
      <point x="-415" y="643" type="line"/>
      <point x="-408" y="562"/>
      <point x="-355" y="500"/>
      <point x="-274" y="500" type="curve" smooth="yes"/>
      <point x="-223" y="500"/>
      <point x="-145" y="538"/>
      <point x="-135" y="643" type="curve"/>
      <point x="-167" y="653" type="line"/>
      <point x="-170" y="589"/>
      <point x="-227" y="574"/>
      <point x="-274" y="574" type="curve" smooth="yes"/>
      <point x="-337" y="574"/>
      <point x="-380" y="599"/>
    </contour>
    <contour>
      <point x="-321" y="685" type="curve" smooth="yes"/>
      <point x="-321" y="660"/>
      <point x="-301" y="640"/>
      <point x="-276" y="640" type="curve" smooth="yes"/>
      <point x="-251" y="640"/>
      <point x="-230" y="660"/>
      <point x="-230" y="685" type="curve" smooth="yes"/>
      <point x="-230" y="710"/>
      <point x="-251" y="731"/>
      <point x="-276" y="731" type="curve" smooth="yes"/>
      <point x="-301" y="731"/>
      <point x="-321" y="710"/>
    </contour>
  </outline>
</glyph>
<glyph name="uni037A" format="2">
  <advance width="283"/>
  <unicode hex="037A"/>
  <anchor x="101" y="-60" name="_ypogegrammeni"/>
  <outline>
    <contour>
      <point x="30" y="-73" type="line"/>
      <point x="30" y="-165" type="line" smooth="yes"/>
      <point x="30" y="-223"/>
      <point x="95" y="-247"/>
      <point x="144" y="-247" type="curve" smooth="yes"/>
      <point x="168" y="-247"/>
      <point x="238" y="-236"/>
      <point x="253" y="-167" type="curve"/>
      <point x="248" y="-160"/>
      <point x="234" y="-155"/>
      <point x="224" y="-156" type="curve"/>
      <point x="217" y="-183"/>
      <point x="202" y="-197"/>
      <point x="184" y="-197" type="curve" smooth="yes"/>
      <point x="164" y="-197"/>
      <point x="151" y="-184"/>
      <point x="151" y="-129" type="curve" smooth="yes"/>
      <point x="151" y="-67" type="line"/>
      <point x="129" y="-60" type="line"/>
    </contour>
  </outline>
</glyph>
<glyph name="tonos" format="2">
  <advance width="195"/>
  <unicode hex="0384"/>
  <outline>
    <contour>
      <point x="30.2858" y="513.415" type="curve" smooth="yes"/>
      <point x="30.2858" y="505.362"/>
      <point x="37.2516" y="499.995"/>
      <point x="47.7036" y="499.995" type="curve" smooth="yes"/>
      <point x="54.0244" y="499.995"/>
      <point x="61.1309" y="504.058"/>
      <point x="65.9212" y="510.409" type="curve" smooth="yes"/>
      <point x="159.714" y="634.775" type="line" smooth="yes"/>
      <point x="163.57" y="639.887"/>
      <point x="164.714" y="644.775"/>
      <point x="164.714" y="649.775" type="curve" smooth="yes"/>
      <point x="164.714" y="669.775"/>
      <point x="141.731" y="690.305"/>
      <point x="108.5" y="690.305" type="curve" smooth="yes"/>
      <point x="97.5005" y="690.305"/>
      <point x="84.2183" y="684.404"/>
      <point x="80.5005" y="673.305" type="curve" smooth="yes"/>
      <point x="32.7711" y="530.82" type="line" smooth="yes"/>
      <point x="29.7725" y="521.869"/>
      <point x="30.2858" y="518.052"/>
    </contour>
  </outline>
</glyph>
<glyph name="dieresistonos" format="2">
  <advance width="410"/>
  <unicode hex="0385"/>
  <outline>
    <component base="tonos" xOffset="157.079" yOffset="86.6949"/>
    <contour>
      <point x="57" y="564" type="curve" smooth="yes"/>
      <point x="57" y="534"/>
      <point x="82" y="510"/>
      <point x="112" y="510" type="curve" smooth="yes"/>
      <point x="143" y="510"/>
      <point x="167" y="534"/>
      <point x="167" y="564" type="curve" smooth="yes"/>
      <point x="167" y="595"/>
      <point x="143" y="619"/>
      <point x="112" y="619" type="curve" smooth="yes"/>
      <point x="82" y="619"/>
      <point x="57" y="595"/>
    </contour>
    <contour>
      <point x="243" y="564" type="curve" smooth="yes"/>
      <point x="243" y="534"/>
      <point x="267" y="510"/>
      <point x="298" y="510" type="curve" smooth="yes"/>
      <point x="328" y="510"/>
      <point x="353" y="534"/>
      <point x="353" y="564" type="curve" smooth="yes"/>
      <point x="353" y="595"/>
      <point x="328" y="619"/>
      <point x="298" y="619" type="curve" smooth="yes"/>
      <point x="267" y="619"/>
      <point x="243" y="595"/>
    </contour>
  </outline>
</glyph>
<glyph name="lambda" format="2">
  <advance width="547"/>
  <unicode hex="03BB"/>
  <outline>
    <contour>
      <point x="540" y="76" type="curve"/>
      <point x="537" y="85"/>
      <point x="531" y="100"/>
      <point x="520" y="102" type="curve"/>
      <point x="499" y="76"/>
      <point x="479" y="71"/>
      <point x="458" y="71" type="curve" smooth="yes"/>
      <point x="426" y="71"/>
      <point x="414" y="82"/>
      <point x="375" y="214" type="curve" smooth="yes"/>
      <point x="268" y="569" type="line" smooth="yes"/>
      <point x="233" y="687"/>
      <point x="161" y="698"/>
      <point x="131" y="698" type="curve" smooth="yes"/>
      <point x="92" y="698"/>
      <point x="53" y="655"/>
      <point x="34" y="619" type="curve"/>
      <point x="34.3866" y="604.474"/>
      <point x="43.3197" y="592"/>
      <point x="51" y="592" type="curve"/>
      <point x="69" y="609"/>
      <point x="97" y="617"/>
      <point x="122" y="617" type="curve" smooth="yes"/>
      <point x="150" y="617"/>
      <point x="189" y="616"/>
      <point x="230" y="478" type="curve" smooth="yes"/>
      <point x="239" y="449" type="line"/>
      <point x="-8" y="0" type="line"/>
      <point x="27" y="-12" type="line"/>
      <point x="50" y="-6"/>
      <point x="115" y="-2"/>
      <point x="142" y="0" type="curve"/>
      <point x="274" y="334" type="line"/>
      <point x="336" y="126" type="line" smooth="yes"/>
      <point x="364" y="33"/>
      <point x="404" y="-10"/>
      <point x="454" y="-10" type="curve" smooth="yes"/>
      <point x="483" y="-10"/>
      <point x="527" y="12"/>
    </contour>
  </outline>
</glyph>
<glyph name="omicron" format="2">
  <advance width="537"/>
  <unicode hex="03BF"/>
  <anchor x="354" y="10" name="b.ogonek"/>
  <anchor x="262" y="-60" name="b.minus-60"/>
  <anchor x="253" y="510" name="t.gr_LC"/>
  <anchor x="262" y="-60" name="ypogegrammeni"/>
  <outline>
    <contour>
      <point x="30" y="203.8" type="curve" smooth="yes"/>
      <point x="30" y="72.8135"/>
      <point x="114.646" y="-10"/>
      <point x="253.662" y="-10" type="curve" smooth="yes"/>
      <point x="400.849" y="-10"/>
      <point x="507" y="82.834"/>
      <point x="507" y="213.183" type="curve" smooth="yes"/>
      <point x="507" y="357.212"/>
      <point x="422.445" y="444"/>
      <point x="281.111" y="444" type="curve" smooth="yes"/>
      <point x="132.322" y="444"/>
      <point x="30" y="347.815"/>
    </contour>
    <contour>
      <point x="261.073" y="402" type="curve" smooth="yes"/>
      <point x="329.868" y="402"/>
      <point x="367" y="317.518"/>
      <point x="367" y="184" type="curve" smooth="yes"/>
      <point x="367" y="91.0361"/>
      <point x="329.367" y="32"/>
      <point x="278.604" y="32" type="curve" smooth="yes"/>
      <point x="216.193" y="32"/>
      <point x="170" y="121.149"/>
      <point x="170" y="229" type="curve" smooth="yes"/>
      <point x="170" y="344.825"/>
      <point x="204.478" y="402"/>
    </contour>
  </outline>
</glyph>
<glyph name="uni03D7" format="2">
  <advance width="572"/>
  <unicode hex="03D7"/>
  <outline>
    <contour>
      <point x="14" y="334" type="curve"/>
      <point x="16.2211" y="317.827"/>
      <point x="33.8641" y="302.511"/>
      <point x="52" y="297" type="curve"/>
      <point x="72.4795" y="324.846"/>
      <point x="112" y="359"/>
      <point x="140" y="359" type="curve" smooth="yes"/>
      <point x="155.071" y="359"/>
      <point x="158" y="332.513"/>
      <point x="158" y="296" type="curve" smooth="yes"/>
      <point x="158" y="248"/>
      <point x="149" y="188"/>
      <point x="135" y="121" type="curve" smooth="yes"/>
      <point x="133.263" y="112.689" type="line"/>
      <point x="77.2633" y="72.6889"/>
      <point x="62" y="59"/>
      <point x="62" y="33" type="curve" smooth="yes"/>
      <point x="62" y="-6.28484"/>
      <point x="100.354" y="-12"/>
      <point x="131" y="-12" type="curve" smooth="yes"/>
      <point x="176.345" y="-12"/>
      <point x="205" y="9"/>
      <point x="215" y="47" type="curve"/>
      <point x="252.313" y="108.317"/>
      <point x="300.649" y="171.269"/>
      <point x="341" y="217" type="curve"/>
      <point x="337" y="183"/>
      <point x="335" y="156"/>
      <point x="335" y="134" type="curve" smooth="yes"/>
      <point x="335" y="87.3588"/>
      <point x="343.414" y="3.4683"/>
      <point x="402.778" y="3.4683" type="curve" smooth="yes"/>
      <point x="411.29" y="3.4683"/>
      <point x="420.85" y="5.1932"/>
      <point x="431.583" y="9" type="curve"/>
      <point x="417.931" y="-27.0298"/>
      <point x="380.183" y="-83"/>
      <point x="346" y="-120" type="curve"/>
      <point x="328.661" y="-94.963"/>
      <point x="298.594" y="-83"/>
      <point x="271" y="-83" type="curve" smooth="yes"/>
      <point x="240.864" y="-83"/>
      <point x="215" y="-92.1838"/>
      <point x="215" y="-126" type="curve" smooth="yes"/>
      <point x="215" y="-167.879"/>
      <point x="287.589" y="-169"/>
      <point x="315" y="-169" type="curve" smooth="yes"/>
      <point x="377" y="-169"/>
      <point x="426.551" y="-140.894"/>
      <point x="456" y="-88" type="curve" smooth="yes"/>
      <point x="559" y="97" type="line"/>
      <point x="522" y="136" type="line"/>
      <point x="507" y="121" type="line" smooth="yes"/>
      <point x="463.988" y="77.9884"/>
      <point x="443" y="73"/>
      <point x="433" y="73" type="curve" smooth="yes"/>
      <point x="421" y="73"/>
      <point x="415" y="93"/>
      <point x="415" y="134" type="curve" smooth="yes"/>
      <point x="415" y="181"/>
      <point x="423.44" y="236.584"/>
      <point x="433" y="300" type="curve" smooth="yes"/>
      <point x="433.613" y="304.066" type="line"/>
      <point x="491.613" y="346.066"/>
      <point x="514" y="373"/>
      <point x="514" y="399" type="curve" smooth="yes"/>
      <point x="514" y="437.877"/>
      <point x="475.592" y="445"/>
      <point x="445" y="445" type="curve" smooth="yes"/>
      <point x="391.365" y="445"/>
      <point x="371.868" y="416.128"/>
      <point x="364.956" y="367.253" type="curve"/>
      <point x="328.616" y="314.876"/>
      <point x="276.093" y="251.238"/>
      <point x="229" y="204" type="curve"/>
      <point x="235" y="242"/>
      <point x="237" y="272"/>
      <point x="237" y="296" type="curve" smooth="yes"/>
      <point x="237" y="357.432"/>
      <point x="225.398" y="445"/>
      <point x="146" y="445" type="curve" smooth="yes"/>
      <point x="85.2168" y="445"/>
      <point x="40.162" y="380.911"/>
    </contour>
  </outline>
</glyph>
<glyph name="uni044E" format="2">
  <advance width="836"/>
  <unicode hex="044E"/>
  <anchor x="363" y="500" name="top"/>
  <outline>
    <contour>
      <point x="232" y="196" type="line"/>
      <point x="342" y="196" type="line"/>
      <point x="347" y="72"/>
      <point x="439" y="-10"/>
      <point x="570" y="-10" type="curve" smooth="yes"/>
      <point x="708" y="-10"/>
      <point x="799" y="76"/>
      <point x="799" y="216" type="curve" smooth="yes"/>
      <point x="799" y="347"/>
      <point x="720" y="444"/>
      <point x="571" y="444" type="curve" smooth="yes"/>
      <point x="447" y="444"/>
      <point x="350" y="367"/>
      <point x="344" y="240" type="curve"/>
      <point x="232" y="240" type="line"/>
      <point x="232" y="307" type="line" smooth="yes"/>
      <point x="232" y="390"/>
      <point x="248" y="399"/>
      <point x="309" y="402" type="curve"/>
      <point x="315" y="408"/>
      <point x="315" y="430"/>
      <point x="309" y="436" type="curve"/>
      <point x="267" y="435"/>
      <point x="222" y="434"/>
      <point x="167" y="434" type="curve" smooth="yes"/>
      <point x="112" y="434"/>
      <point x="68" y="435"/>
      <point x="25" y="436" type="curve"/>
      <point x="19" y="430"/>
      <point x="19" y="408"/>
      <point x="25" y="402" type="curve"/>
      <point x="86" y="399"/>
      <point x="102" y="390"/>
      <point x="102" y="307" type="curve" smooth="yes"/>
      <point x="102" y="127" type="line" smooth="yes"/>
      <point x="102" y="44"/>
      <point x="86" y="35"/>
      <point x="25" y="32" type="curve"/>
      <point x="19" y="26"/>
      <point x="19" y="4"/>
      <point x="25" y="-2" type="curve"/>
      <point x="67" y="-1"/>
      <point x="112" y="0"/>
      <point x="167" y="0" type="curve" smooth="yes"/>
      <point x="222" y="0"/>
      <point x="266" y="-1"/>
      <point x="309" y="-2" type="curve"/>
      <point x="315" y="4"/>
      <point x="315" y="26"/>
      <point x="309" y="32" type="curve"/>
      <point x="248" y="35"/>
      <point x="232" y="44"/>
      <point x="232" y="127" type="curve" smooth="yes"/>
    </contour>
    <contour>
      <point x="555" y="402" type="curve" smooth="yes"/>
      <point x="623" y="402"/>
      <point x="659" y="321"/>
      <point x="659" y="184" type="curve" smooth="yes"/>
      <point x="659" y="64"/>
      <point x="622" y="32"/>
      <point x="586" y="32" type="curve" smooth="yes"/>
      <point x="504" y="32"/>
      <point x="482" y="155"/>
      <point x="482" y="229" type="curve" smooth="yes"/>
      <point x="482" y="321"/>
      <point x="488" y="402"/>
    </contour>
  </outline>
</glyph>
<glyph name="uni0454" format="2">
  <advance width="459"/>
  <unicode hex="0454"/>
  <outline>
    <contour>
      <point x="267.563" y="444" type="curve" smooth="yes"/>
      <point x="106" y="444"/>
      <point x="30" y="328"/>
      <point x="30" y="209.262" type="curve" smooth="yes"/>
      <point x="30" y="74.2045"/>
      <point x="128.326" y="-10.1285"/>
      <point x="262.369" y="-10.1681" type="curve" smooth="yes"/>
      <point x="323.182" y="-10.1861"/>
      <point x="439" y="7.13136"/>
      <point x="439" y="82.1012" type="curve" smooth="yes"/>
      <point x="439" y="108.061"/>
      <point x="423.945" y="130"/>
      <point x="397" y="130" type="curve" smooth="yes"/>
      <point x="369" y="130"/>
      <point x="351" y="111"/>
      <point x="340.661" y="82.8017" type="curve" smooth="yes"/>
      <point x="329" y="51"/>
      <point x="308" y="32"/>
      <point x="276.954" y="32" type="curve" smooth="yes"/>
      <point x="203.414" y="32"/>
      <point x="176.366" y="123.073"/>
      <point x="171" y="187.469" type="curve"/>
      <point x="188.768" y="199.443"/>
      <point x="208.724" y="205.962"/>
      <point x="220.256" y="205.962" type="curve" smooth="yes"/>
      <point x="255.55" y="205.962"/>
      <point x="288.889" y="181.245"/>
      <point x="324.664" y="181.245" type="curve" smooth="yes"/>
      <point x="358.17" y="181.245"/>
      <point x="385" y="219.194"/>
      <point x="385" y="235.588" type="curve" smooth="yes"/>
      <point x="385" y="243.105"/>
      <point x="382.11" y="248.414"/>
      <point x="377.653" y="248.449" type="curve" smooth="yes"/>
      <point x="371.051" y="248.5"/>
      <point x="356.539" y="238.638"/>
      <point x="342.854" y="238.658" type="curve" smooth="yes"/>
      <point x="313.4" y="238.699"/>
      <point x="276.09" y="267"/>
      <point x="247.09" y="267" type="curve" smooth="yes"/>
      <point x="213.641" y="267"/>
      <point x="188.811" y="256.154"/>
      <point x="171" y="238" type="curve"/>
      <point x="167.899" y="241.253" type="line"/>
      <point x="167.899" y="333.253"/>
      <point x="187" y="402"/>
      <point x="251.118" y="402" type="curve" smooth="yes"/>
      <point x="293" y="402"/>
      <point x="366" y="370"/>
      <point x="391" y="309" type="curve"/>
      <point x="409" y="306"/>
      <point x="420" y="307"/>
      <point x="430" y="314" type="curve"/>
      <point x="430" y="350"/>
      <point x="424" y="394"/>
      <point x="415" y="426" type="curve"/>
      <point x="372.493" y="425.112"/>
      <point x="315" y="444"/>
    </contour>
  </outline>
</glyph>
<glyph name="uni048F" format="2">
  <advance width="573"/>
  <unicode hex="048F"/>
  <outline>
    <component base="p"/>
    <contour>
      <point x="301" y="186" type="line"/>
      <point x="270" y="162" type="line"/>
      <point x="466" y="-64" type="line"/>
      <point x="495" y="-38" type="line"/>
    </contour>
  </outline>
</glyph>
<glyph name="uni0492" format="2">
  <advance width="572"/>
  <unicode hex="0492"/>
  <outline>
    <component base="uni0413" xOffset="8"/>
    <contour>
      <point x="177.298" y="330" type="line"/>
      <point x="177.298" y="282" type="line"/>
      <point x="297" y="282" type="line"/>
      <point x="297" y="330" type="line"/>
    </contour>
    <contour>
      <point x="174" y="282" type="line"/>
      <point x="174" y="330" type="line"/>
      <point x="47" y="330" type="line" smooth="yes"/>
      <point x="38" y="330"/>
      <point x="22" y="320"/>
      <point x="22" y="299" type="curve" smooth="yes"/>
      <point x="22" y="291"/>
      <point x="25" y="282"/>
      <point x="32" y="282" type="curve" smooth="yes"/>
    </contour>
    <contour>
      <point x="238" y="282" type="line"/>
      <point x="373" y="282" type="line" smooth="yes"/>
      <point x="384" y="282"/>
      <point x="398" y="294"/>
      <point x="398" y="311" type="curve" smooth="yes"/>
      <point x="398" y="320"/>
      <point x="395" y="330"/>
      <point x="388" y="330" type="curve" smooth="yes"/>
      <point x="238" y="330" type="line"/>
    </contour>
  </outline>
</glyph>
<glyph name="uni1FEF" format="2">
  <advance width="198"/>
  <unicode hex="1FEF"/>
  <anchor x="132" y="500" name="_t.gr_UC"/>
  <anchor x="132" y="500" name="_t.gr_LC"/>
  <outline>
    <contour>
      <point x="152" y="500" type="curve" smooth="yes"/>
      <point x="159" y="500"/>
      <point x="168" y="506"/>
      <point x="168" y="513" type="curve" smooth="yes"/>
      <point x="168" y="519"/>
      <point x="166" y="525"/>
      <point x="164" y="531" type="curve" smooth="yes"/>
      <point x="111" y="674" type="line" smooth="yes"/>
      <point x="106" y="686"/>
      <point x="87" y="690"/>
      <point x="72" y="690" type="curve" smooth="yes"/>
      <point x="47" y="690"/>
      <point x="30" y="678"/>
      <point x="30" y="658" type="curve" smooth="yes"/>
      <point x="30" y="649"/>
      <point x="32" y="641"/>
      <point x="37" y="635" type="curve" smooth="yes"/>
      <point x="131" y="510" type="line" smooth="yes"/>
      <point x="136" y="503"/>
      <point x="142" y="500"/>
    </contour>
  </outline>
</glyph>
<glyph name="quotedblleft" format="2">
  <advance width="440"/>
  <unicode hex="201C"/>
  <outline>
    <contour>
      <point x="318" y="500" type="curve" smooth="yes"/>
      <point x="356.055" y="500"/>
      <point x="381" y="524.945"/>
      <point x="381" y="563" type="curve" smooth="yes"/>
      <point x="381" y="592.834"/>
      <point x="365.326" y="615.594"/>
      <point x="341" y="621" type="curve" smooth="yes"/>
      <point x="332" y="623" type="line" smooth="yes"/>
      <point x="319.31" y="625.82"/>
      <point x="305" y="636"/>
      <point x="305" y="654" type="curve" smooth="yes"/>
      <point x="305" y="703.144"/>
      <point x="344.545" y="748.143"/>
      <point x="401" y="763" type="curve"/>
      <point x="406" y="776"/>
      <point x="405" y="787"/>
      <point x="394" y="794" type="curve"/>
      <point x="307.266" y="780.25"/>
      <point x="231" y="700.217"/>
      <point x="231" y="623" type="curve" smooth="yes"/>
      <point x="231" y="541"/>
      <point x="265" y="500"/>
    </contour>
    <contour>
      <point x="121" y="500" type="curve" smooth="yes"/>
      <point x="157.605" y="500"/>
      <point x="184" y="526.395"/>
      <point x="184" y="563" type="curve" smooth="yes"/>
      <point x="184" y="591.986"/>
      <point x="167.729" y="615.727"/>
      <point x="144" y="621" type="curve" smooth="yes"/>
      <point x="135" y="623" type="line" smooth="yes"/>
      <point x="122.31" y="625.82"/>
      <point x="108" y="636"/>
      <point x="108" y="654" type="curve" smooth="yes"/>
      <point x="108" y="701.389"/>
      <point x="149.551" y="748.671"/>
      <point x="204" y="763" type="curve"/>
      <point x="209" y="776"/>
      <point x="208" y="787"/>
      <point x="197" y="794" type="curve"/>
      <point x="108.251" y="779.93"/>
      <point x="34" y="702.012"/>
      <point x="34" y="623" type="curve" smooth="yes"/>
      <point x="34" y="541"/>
      <point x="68" y="500"/>
    </contour>
  </outline>
</glyph>
<glyph name="euroarchaic" format="2">
  <advance width="848"/>
  <unicode hex="20A0"/>
  <outline>
    <contour>
      <point x="38" y="401" type="curve" smooth="yes"/>
      <point x="38" y="233"/>
      <point x="153" y="157"/>
      <point x="358" y="157" type="curve" smooth="yes"/>
      <point x="375" y="157"/>
      <point x="391" y="158"/>
      <point x="408" y="160" type="curve"/>
      <point x="408" y="199" type="line"/>
      <point x="391" y="197"/>
      <point x="373" y="196"/>
      <point x="357" y="196" type="curve" smooth="yes"/>
      <point x="241" y="196"/>
      <point x="189" y="298"/>
      <point x="189" y="415" type="curve" smooth="yes"/>
      <point x="189" y="531"/>
      <point x="229" y="627"/>
      <point x="348" y="627" type="curve" smooth="yes"/>
      <point x="486" y="627"/>
      <point x="531" y="569"/>
      <point x="557" y="504" type="curve"/>
      <point x="569" y="501"/>
      <point x="589" y="504"/>
      <point x="600" y="508" type="curve"/>
      <point x="587" y="545"/>
      <point x="581" y="581"/>
      <point x="578" y="624" type="curve"/>
      <point x="527" y="628"/>
      <point x="482" y="658"/>
      <point x="359" y="658" type="curve" smooth="yes"/>
      <point x="163" y="658"/>
      <point x="38" y="566"/>
    </contour>
    <contour>
      <point x="449" y="-1" type="line"/>
      <point x="644" y="-1" type="line" smooth="yes"/>
      <point x="692" y="-1"/>
      <point x="773" y="-2"/>
      <point x="782" y="-2" type="curve"/>
      <point x="787" y="38"/>
      <point x="797" y="84"/>
      <point x="809" y="123" type="curve"/>
      <point x="799" y="128"/>
      <point x="777" y="129"/>
      <point x="764" y="127" type="curve"/>
      <point x="744" y="73"/>
      <point x="699" y="31"/>
      <point x="623" y="31" type="curve" smooth="yes"/>
      <point x="562" y="31" type="line" smooth="yes"/>
      <point x="540" y="31"/>
      <point x="521" y="47"/>
      <point x="521" y="67" type="curve" smooth="yes"/>
      <point x="521" y="415" type="line" smooth="yes"/>
      <point x="521" y="433"/>
      <point x="538" y="452"/>
      <point x="562" y="452" type="curve" smooth="yes"/>
      <point x="607" y="452" type="line" smooth="yes"/>
      <point x="682" y="452"/>
      <point x="703" y="424"/>
      <point x="725" y="372" type="curve"/>
      <point x="737" y="371"/>
      <point x="758" y="371"/>
      <point x="768" y="375" type="curve"/>
      <point x="761" y="407"/>
      <point x="756" y="473"/>
      <point x="756" y="484" type="curve" smooth="yes"/>
      <point x="756" y="486"/>
      <point x="755" y="486"/>
      <point x="752" y="486" type="curve"/>
      <point x="735" y="484"/>
      <point x="727" y="483"/>
      <point x="703" y="483" type="curve" smooth="yes"/>
      <point x="449" y="483" type="line"/>
    </contour>
    <contour>
      <point x="506" y="239" type="line"/>
      <point x="562" y="239" type="line" smooth="yes"/>
      <point x="631" y="239"/>
      <point x="650" y="225"/>
      <point x="653" y="191" type="curve"/>
      <point x="659" y="187"/>
      <point x="690" y="187"/>
      <point x="696" y="191" type="curve"/>
      <point x="695" y="217"/>
      <point x="694" y="232"/>
      <point x="694" y="257" type="curve" smooth="yes"/>
      <point x="694" y="283"/>
      <point x="695" y="299"/>
      <point x="696" y="321" type="curve"/>
      <point x="690" y="326"/>
      <point x="659" y="326"/>
      <point x="653" y="321" type="curve"/>
      <point x="650" y="280"/>
      <point x="629" y="273"/>
      <point x="562" y="273" type="curve" smooth="yes"/>
      <point x="506" y="273" type="line"/>
    </contour>
    <contour>
      <point x="294" y="-2" type="curve"/>
      <point x="343" y="-1"/>
      <point x="439" y="-1"/>
      <point x="449" y="-1" type="curve"/>
      <point x="449" y="483" type="line"/>
      <point x="439" y="483"/>
      <point x="344" y="484"/>
      <point x="294" y="485" type="curve"/>
      <point x="288" y="481"/>
      <point x="288" y="464"/>
      <point x="294" y="459" type="curve"/>
      <point x="364" y="457"/>
      <point x="381" y="453"/>
      <point x="381" y="391" type="curve" smooth="yes"/>
      <point x="381" y="92" type="line" smooth="yes"/>
      <point x="381" y="29"/>
      <point x="364" y="26"/>
      <point x="294" y="24" type="curve"/>
      <point x="288" y="20"/>
      <point x="288" y="3"/>
    </contour>
  </outline>
</glyph>
<glyph name="uni20A8" format="2">
  <advance width="817"/>
  <unicode hex="20A8"/>
  <outline>
    <contour>
      <point x="22" y="0" type="line"/>
      <point x="62" y="0"/>
      <point x="139" y="-1"/>
      <point x="179" y="-2" type="curve"/>
      <point x="189" y="4"/>
      <point x="189" y="26"/>
      <point x="179" y="32" type="curve"/>
      <point x="124" y="35"/>
      <point x="96" y="39"/>
      <point x="96" y="122" type="curve" smooth="yes"/>
      <point x="96" y="283" type="line"/>
      <point x="166.087" y="283"/>
      <point x="182.975" y="275.344"/>
      <point x="198" y="253" type="curve" smooth="yes"/>
      <point x="315" y="79" type="line" smooth="yes"/>
      <point x="345.491" y="33.6538"/>
      <point x="387" y="-10"/>
      <point x="447" y="-10" type="curve" smooth="yes"/>
      <point x="487" y="-10"/>
      <point x="539" y="-7"/>
      <point x="549" y="-2" type="curve"/>
      <point x="553" y="5"/>
      <point x="552" y="24"/>
      <point x="548" y="32" type="curve"/>
      <point x="503" y="32"/>
      <point x="480" y="56"/>
      <point x="452" y="98" type="curve" smooth="yes"/>
      <point x="316" y="308" type="line"/>
      <point x="370" y="330"/>
      <point x="448" y="382"/>
      <point x="448" y="484" type="curve" smooth="yes"/>
      <point x="448" y="625"/>
      <point x="317" y="654"/>
      <point x="204" y="654" type="curve" smooth="yes"/>
      <point x="182" y="654"/>
      <point x="101" y="647"/>
      <point x="22" y="645" type="curve"/>
    </contour>
    <contour>
      <point x="96" y="325" type="line"/>
      <point x="96" y="524" type="line" smooth="yes"/>
      <point x="96" y="592"/>
      <point x="119" y="613"/>
      <point x="172" y="613" type="curve" smooth="yes"/>
      <point x="230" y="613"/>
      <point x="297" y="589"/>
      <point x="297" y="467" type="curve" smooth="yes"/>
      <point x="297" y="344"/>
      <point x="223" y="325"/>
      <point x="139" y="325" type="curve" smooth="yes"/>
    </contour>
    <contour>
      <point x="448" y="146" type="curve"/>
      <point x="455.781" y="98.466"/>
      <point x="461.149" y="45.075"/>
      <point x="462.905" y="-2" type="curve"/>
      <point x="489.345" y="-2.1575"/>
      <point x="566.353" y="-10"/>
      <point x="599" y="-10" type="curve" smooth="yes"/>
      <point x="681" y="-10"/>
      <point x="767" y="32"/>
      <point x="767" y="126" type="curve" smooth="yes"/>
      <point x="767" y="190.061"/>
      <point x="724.27" y="240.399"/>
      <point x="651" y="263.87" type="curve" smooth="yes"/>
      <point x="581.497" y="286.134"/>
      <point x="566" y="302.613"/>
      <point x="566" y="355" type="curve" smooth="yes"/>
      <point x="566" y="383"/>
      <point x="585" y="402"/>
      <point x="613" y="402" type="curve" smooth="yes"/>
      <point x="649" y="402"/>
      <point x="683" y="370"/>
      <point x="708" y="309" type="curve"/>
      <point x="721" y="306"/>
      <point x="729" y="307"/>
      <point x="737" y="314" type="curve"/>
      <point x="732.946" y="352.177"/>
      <point x="731.449" y="385"/>
      <point x="734.449" y="416" type="curve"/>
      <point x="693.449" y="423"/>
      <point x="663.489" y="444"/>
      <point x="608" y="444" type="curve" smooth="yes"/>
      <point x="512" y="444"/>
      <point x="453" y="395"/>
      <point x="453" y="314" type="curve" smooth="yes"/>
      <point x="453" y="251.113"/>
      <point x="485.819" y="209.409"/>
      <point x="546" y="187" type="curve" smooth="yes"/>
      <point x="627.038" y="156.825"/>
      <point x="651" y="132.634"/>
      <point x="651" y="81" type="curve" smooth="yes"/>
      <point x="651" y="49.1735"/>
      <point x="631.99" y="29"/>
      <point x="602" y="29" type="curve" smooth="yes"/>
      <point x="557" y="29"/>
      <point x="509" y="75"/>
      <point x="488" y="148" type="curve"/>
      <point x="472" y="151"/>
      <point x="464" y="150"/>
    </contour>
  </outline>
</glyph>
<glyph name="manat" format="2">
  <advance width="860"/>
  <unicode hex="20BC"/>
  <outline>
    <contour>
      <point x="386.053" y="43.634" type="line"/>
      <point x="468.085" y="90.7586" type="line"/>
      <point x="461.103" y="656.255" type="line"/>
      <point x="403.507" y="631.82" type="line"/>
    </contour>
    <contour>
      <point x="30" y="8.72679" type="curve"/>
      <point x="110.286" y="5.23608" type="line"/>
      <point x="109.836" y="397.589"/>
      <point x="322.421" y="530.589"/>
      <point x="426.196" y="530.589" type="curve" smooth="yes"/>
      <point x="706.435" y="530.589"/>
      <point x="738.572" y="163.321"/>
      <point x="749.087" y="5.23606" type="curve"/>
      <point x="829.374" y="1.74534" type="line"/>
      <point x="829.334" y="380.479"/>
      <point x="615.764" y="584.695"/>
      <point x="445.395" y="584.695" type="curve" smooth="yes"/>
      <point x="154.72" y="584.695"/>
      <point x="44.2635" y="277.951"/>
    </contour>
  </outline>
</glyph>
<glyph name="ruble" format="2">
  <advance width="615"/>
  <unicode hex="20BD"/>
  <outline>
    <component base="P" xOffset="-87.5"/>
    <contour>
      <point x="169" y="172" type="line"/>
      <point x="169" y="220" type="line"/>
      <point x="42" y="220" type="line" smooth="yes"/>
      <point x="33" y="220"/>
      <point x="17" y="210"/>
      <point x="17" y="189" type="curve" smooth="yes"/>
      <point x="17" y="181"/>
      <point x="20" y="172"/>
      <point x="27" y="172" type="curve" smooth="yes"/>
    </contour>
    <contour>
      <point x="198" y="172" type="line"/>
      <point x="333" y="172" type="line" smooth="yes"/>
      <point x="344" y="172"/>
      <point x="358" y="184"/>
      <point x="358" y="201" type="curve" smooth="yes"/>
      <point x="358" y="210"/>
      <point x="355" y="220"/>
      <point x="348" y="220" type="curve" smooth="yes"/>
      <point x="198" y="220" type="line"/>
    </contour>
  </outline>
</glyph>
<glyph name="uni20C0" format="2">
  <advance width="554"/>
  <unicode hex="20C0"/>
  <outline>
    <contour>
      <point x="307.542" y="658" type="curve" smooth="yes"/>
      <point x="158.678" y="658.043"/>
      <point x="38" y="537.323"/>
      <point x="38" y="388.459" type="curve" smooth="yes"/>
      <point x="38" y="239.594"/>
      <point x="158.678" y="118.874"/>
      <point x="307.542" y="118.917" type="curve" smooth="yes"/>
      <point x="379.005" y="118.937"/>
      <point x="447.518" y="147.419"/>
      <point x="498.018" y="197.983" type="curve"/>
      <point x="441.997" y="254.003" type="line"/>
      <point x="406.349" y="218.312"/>
      <point x="357.987" y="198.237"/>
      <point x="307.542" y="198.193" type="curve" smooth="yes"/>
      <point x="202.462" y="198.193"/>
      <point x="117.277" y="283.378"/>
      <point x="117.277" y="388.458" type="curve" smooth="yes"/>
      <point x="117.277" y="493.539"/>
      <point x="202.462" y="578.723"/>
      <point x="307.542" y="578.723" type="curve" smooth="yes"/>
      <point x="357.987" y="578.68"/>
      <point x="406.349" y="558.605"/>
      <point x="441.997" y="522.914" type="curve"/>
      <point x="498.018" y="578.934" type="line"/>
      <point x="447.518" y="629.498"/>
      <point x="379.005" y="657.979"/>
    </contour>
    <contour>
      <point x="38" y="79.2771" type="line"/>
      <point x="38" y="0" type="line"/>
      <point x="498.018" y="0" type="line"/>
      <point x="498.018" y="79.2771" type="line"/>
    </contour>
  </outline>
</glyph>
<glyph name="uni2171" format="2">
  <advance width="620"/>
  <unicode hex="2171"/>
  <outline>
    <contour>
      <point x="101" y="596" type="curve" smooth="yes"/>
      <point x="101" y="563"/>
      <point x="125" y="530"/>
      <point x="165" y="530" type="curve" smooth="yes"/>
      <point x="210" y="530"/>
      <point x="236" y="566"/>
      <point x="236" y="592" type="curve" smooth="yes"/>
      <point x="236" y="622"/>
      <point x="213" y="658"/>
      <point x="171" y="658" type="curve" smooth="yes"/>
      <point x="124" y="658"/>
      <point x="101" y="626"/>
    </contour>
    <contour>
      <point x="234" y="307" type="line" smooth="yes"/>
      <point x="234" y="390"/>
      <point x="250" y="399"/>
      <point x="311" y="402" type="curve"/>
      <point x="317" y="408"/>
      <point x="317" y="430"/>
      <point x="311" y="436" type="curve"/>
      <point x="269" y="435"/>
      <point x="224" y="434"/>
      <point x="169" y="434" type="curve" smooth="yes"/>
      <point x="114" y="434"/>
      <point x="70" y="435"/>
      <point x="27" y="436" type="curve"/>
      <point x="21" y="430"/>
      <point x="21" y="408"/>
      <point x="27" y="402" type="curve"/>
      <point x="88" y="399"/>
      <point x="104" y="390"/>
      <point x="104" y="307" type="curve" smooth="yes"/>
      <point x="104" y="127" type="line" smooth="yes"/>
      <point x="104" y="44"/>
      <point x="88" y="35"/>
      <point x="27" y="32" type="curve"/>
      <point x="21" y="26"/>
      <point x="21" y="4"/>
      <point x="27" y="-2" type="curve"/>
      <point x="69" y="-1"/>
      <point x="114" y="0"/>
      <point x="169" y="0" type="curve" smooth="yes"/>
      <point x="224" y="0"/>
      <point x="268" y="-1"/>
      <point x="311" y="-2" type="curve"/>
      <point x="317" y="4"/>
      <point x="317" y="26"/>
      <point x="311" y="32" type="curve"/>
      <point x="250" y="35"/>
      <point x="234" y="44"/>
      <point x="234" y="127" type="curve" smooth="yes"/>
    </contour>
    <contour>
      <point x="383" y="596" type="curve" smooth="yes"/>
      <point x="383" y="563"/>
      <point x="407" y="530"/>
      <point x="447" y="530" type="curve" smooth="yes"/>
      <point x="492" y="530"/>
      <point x="518" y="566"/>
      <point x="518" y="592" type="curve" smooth="yes"/>
      <point x="518" y="622"/>
      <point x="495" y="658"/>
      <point x="453" y="658" type="curve" smooth="yes"/>
      <point x="406" y="658"/>
      <point x="383" y="626"/>
    </contour>
    <contour>
      <point x="516" y="307" type="line" smooth="yes"/>
      <point x="516" y="390"/>
      <point x="532" y="399"/>
      <point x="593" y="402" type="curve"/>
      <point x="599" y="408"/>
      <point x="599" y="430"/>
      <point x="593" y="436" type="curve"/>
      <point x="551" y="435"/>
      <point x="506" y="434"/>
      <point x="451" y="434" type="curve" smooth="yes"/>
      <point x="396" y="434"/>
      <point x="352" y="435"/>
      <point x="309" y="436" type="curve"/>
      <point x="303" y="430"/>
      <point x="303" y="408"/>
      <point x="309" y="402" type="curve"/>
      <point x="370" y="399"/>
      <point x="386" y="390"/>
      <point x="386" y="307" type="curve" smooth="yes"/>
      <point x="386" y="127" type="line" smooth="yes"/>
      <point x="386" y="44"/>
      <point x="370" y="35"/>
      <point x="309" y="32" type="curve"/>
      <point x="303" y="26"/>
      <point x="303" y="4"/>
      <point x="309" y="-2" type="curve"/>
      <point x="351" y="-1"/>
      <point x="396" y="0"/>
      <point x="451" y="0" type="curve" smooth="yes"/>
      <point x="506" y="0"/>
      <point x="550" y="-1"/>
      <point x="593" y="-2" type="curve"/>
      <point x="599" y="4"/>
      <point x="599" y="26"/>
      <point x="593" y="32" type="curve"/>
      <point x="532" y="35"/>
      <point x="516" y="44"/>
      <point x="516" y="127" type="curve" smooth="yes"/>
    </contour>
  </outline>
</glyph>
<glyph name="uni2176" format="2">
  <advance width="1126"/>
  <unicode hex="2176"/>
  <outline>
    <contour>
      <point x="359" y="402" type="curve"/>
      <point x="394.487" y="399.371"/>
      <point x="409.676" y="391.56"/>
      <point x="409.676" y="372.039" type="curve" smooth="yes"/>
      <point x="409.676" y="361.855"/>
      <point x="405.547" y="348.482"/>
      <point x="398" y="331" type="curve" smooth="yes"/>
      <point x="321.158" y="153" type="line" smooth="yes"/>
      <point x="316.327" y="141.81"/>
      <point x="312.819" y="139.386"/>
      <point x="308" y="153" type="curve" smooth="yes"/>
      <point x="245" y="331" type="line" smooth="yes"/>
      <point x="239.548" y="346.403"/>
      <point x="231.468" y="373.539"/>
      <point x="231.468" y="378.887" type="curve" smooth="yes"/>
      <point x="231.468" y="392.386"/>
      <point x="241.4" y="398.911"/>
      <point x="276" y="402" type="curve"/>
      <point x="282" y="408"/>
      <point x="282" y="430"/>
      <point x="276" y="436" type="curve"/>
      <point x="239" y="435"/>
      <point x="199" y="434"/>
      <point x="150" y="434" type="curve" smooth="yes"/>
      <point x="108.963" y="434"/>
      <point x="68.0146" y="434.586"/>
      <point x="27" y="436" type="curve"/>
      <point x="21" y="430"/>
      <point x="21" y="408"/>
      <point x="27" y="402" type="curve"/>
      <point x="67.9117" y="396.989"/>
      <point x="87" y="375"/>
      <point x="107" y="325" type="curve" smooth="yes"/>
      <point x="238" y="9" type="line" smooth="yes"/>
      <point x="244" y="-6"/>
      <point x="261" y="-12"/>
      <point x="274" y="-12" type="curve" smooth="yes"/>
      <point x="284" y="-12"/>
      <point x="304" y="-10"/>
      <point x="313" y="11" type="curve" smooth="yes"/>
      <point x="450" y="324" type="line" smooth="yes"/>
      <point x="470" y="369"/>
      <point x="483" y="397"/>
      <point x="536" y="402" type="curve"/>
      <point x="542" y="408"/>
      <point x="542" y="430"/>
      <point x="536" y="436" type="curve"/>
      <point x="514" y="435"/>
      <point x="482" y="434"/>
      <point x="460" y="434" type="curve" smooth="yes"/>
      <point x="423" y="434"/>
      <point x="386" y="435"/>
      <point x="359" y="436" type="curve"/>
      <point x="353" y="430"/>
      <point x="353" y="408"/>
    </contour>
    <contour>
      <point x="607" y="596" type="curve" smooth="yes"/>
      <point x="607" y="563"/>
      <point x="631" y="530"/>
      <point x="671" y="530" type="curve" smooth="yes"/>
      <point x="716" y="530"/>
      <point x="742" y="566"/>
      <point x="742" y="592" type="curve" smooth="yes"/>
      <point x="742" y="622"/>
      <point x="719" y="658"/>
      <point x="677" y="658" type="curve" smooth="yes"/>
      <point x="630" y="658"/>
      <point x="607" y="626"/>
    </contour>
    <contour>
      <point x="740" y="307" type="line" smooth="yes"/>
      <point x="740" y="390"/>
      <point x="756" y="399"/>
      <point x="817" y="402" type="curve"/>
      <point x="823" y="408"/>
      <point x="823" y="430"/>
      <point x="817" y="436" type="curve"/>
      <point x="775" y="435"/>
      <point x="730" y="434"/>
      <point x="675" y="434" type="curve" smooth="yes"/>
      <point x="620" y="434"/>
      <point x="576" y="435"/>
      <point x="533" y="436" type="curve"/>
      <point x="527" y="430"/>
      <point x="527" y="408"/>
      <point x="533" y="402" type="curve"/>
      <point x="594" y="399"/>
      <point x="610" y="390"/>
      <point x="610" y="307" type="curve" smooth="yes"/>
      <point x="610" y="127" type="line" smooth="yes"/>
      <point x="610" y="44"/>
      <point x="594" y="35"/>
      <point x="533" y="32" type="curve"/>
      <point x="527" y="26"/>
      <point x="527" y="4"/>
      <point x="533" y="-2" type="curve"/>
      <point x="575" y="-1"/>
      <point x="620" y="0"/>
      <point x="675" y="0" type="curve" smooth="yes"/>
      <point x="730" y="0"/>
      <point x="774" y="-1"/>
      <point x="817" y="-2" type="curve"/>
      <point x="823" y="4"/>
      <point x="823" y="26"/>
      <point x="817" y="32" type="curve"/>
      <point x="756" y="35"/>
      <point x="740" y="44"/>
      <point x="740" y="127" type="curve" smooth="yes"/>
    </contour>
    <contour>
      <point x="889" y="596" type="curve" smooth="yes"/>
      <point x="889" y="563"/>
      <point x="913" y="530"/>
      <point x="953" y="530" type="curve" smooth="yes"/>
      <point x="998" y="530"/>
      <point x="1024" y="566"/>
      <point x="1024" y="592" type="curve" smooth="yes"/>
      <point x="1024" y="622"/>
      <point x="1001" y="658"/>
      <point x="959" y="658" type="curve" smooth="yes"/>
      <point x="912" y="658"/>
      <point x="889" y="626"/>
    </contour>
    <contour>
      <point x="1022" y="307" type="line" smooth="yes"/>
      <point x="1022" y="390"/>
      <point x="1038" y="399"/>
      <point x="1099" y="402" type="curve"/>
      <point x="1105" y="408"/>
      <point x="1105" y="430"/>
      <point x="1099" y="436" type="curve"/>
      <point x="1057" y="435"/>
      <point x="1012" y="434"/>
      <point x="957" y="434" type="curve" smooth="yes"/>
      <point x="902" y="434"/>
      <point x="858" y="435"/>
      <point x="815" y="436" type="curve"/>
      <point x="809" y="430"/>
      <point x="809" y="408"/>
      <point x="815" y="402" type="curve"/>
      <point x="876" y="399"/>
      <point x="892" y="390"/>
      <point x="892" y="307" type="curve" smooth="yes"/>
      <point x="892" y="127" type="line" smooth="yes"/>
      <point x="892" y="44"/>
      <point x="876" y="35"/>
      <point x="815" y="32" type="curve"/>
      <point x="809" y="26"/>
      <point x="809" y="4"/>
      <point x="815" y="-2" type="curve"/>
      <point x="857" y="-1"/>
      <point x="902" y="0"/>
      <point x="957" y="0" type="curve" smooth="yes"/>
      <point x="1012" y="0"/>
      <point x="1056" y="-1"/>
      <point x="1099" y="-2" type="curve"/>
      <point x="1105" y="4"/>
      <point x="1105" y="26"/>
      <point x="1099" y="32" type="curve"/>
      <point x="1038" y="35"/>
      <point x="1022" y="44"/>
      <point x="1022" y="127" type="curve" smooth="yes"/>
    </contour>
  </outline>
</glyph>
<glyph name="uni246D" format="2">
  <advance width="871"/>
  <unicode hex="246D"/>
  <outline>
    <contour>
      <point x="441" y="-82" type="curve" smooth="yes"/>
      <point x="659" y="-82"/>
      <point x="838" y="97"/>
      <point x="838" y="315" type="curve" smooth="yes"/>
      <point x="838" y="533"/>
      <point x="659" y="712"/>
      <point x="441" y="712" type="curve" smooth="yes"/>
      <point x="223" y="712"/>
      <point x="45" y="534"/>
      <point x="45" y="315" type="curve" smooth="yes"/>
      <point x="45" y="96"/>
      <point x="223" y="-82"/>
    </contour>
    <contour>
      <point x="441" y="662" type="curve" smooth="yes"/>
      <point x="631" y="662"/>
      <point x="785" y="505"/>
      <point x="785" y="315" type="curve" smooth="yes"/>
      <point x="785" y="126"/>
      <point x="630" y="-32"/>
      <point x="440" y="-32" type="curve" smooth="yes"/>
      <point x="251" y="-32"/>
      <point x="98" y="124"/>
      <point x="98" y="315" type="curve" smooth="yes"/>
      <point x="98" y="505"/>
      <point x="251" y="662"/>
    </contour>
    <contour>
      <point x="343" y="196" type="curve" smooth="yes"/>
      <point x="343" y="430" type="line" smooth="yes"/>
      <point x="343" y="465"/>
      <point x="348" y="498"/>
      <point x="348" y="502" type="curve" smooth="yes"/>
      <point x="348" y="510"/>
      <point x="345" y="513"/>
      <point x="337" y="513" type="curve"/>
      <point x="311" y="497"/>
      <point x="201" y="456"/>
      <point x="165" y="446" type="curve"/>
      <point x="165" y="435"/>
      <point x="170" y="424"/>
      <point x="179" y="418" type="curve"/>
      <point x="214" y="433"/>
      <point x="238" y="434"/>
      <point x="244" y="434" type="curve" smooth="yes"/>
      <point x="255" y="434"/>
      <point x="259" y="431"/>
      <point x="259" y="399" type="curve" smooth="yes"/>
      <point x="259" y="196" type="line" smooth="yes"/>
      <point x="259" y="142"/>
      <point x="228" y="140"/>
      <point x="192" y="138" type="curve"/>
      <point x="186" y="134"/>
      <point x="186" y="120"/>
      <point x="192" y="116" type="curve"/>
      <point x="200" y="116"/>
      <point x="276" y="119"/>
      <point x="302" y="119" type="curve" smooth="yes"/>
      <point x="327" y="119"/>
      <point x="356" y="116"/>
      <point x="410" y="116" type="curve"/>
      <point x="416" y="120"/>
      <point x="416" y="134"/>
      <point x="410" y="138" type="curve"/>
      <point x="374" y="140"/>
      <point x="343" y="142"/>
    </contour>
    <contour>
      <point x="696" y="253" type="curve" smooth="yes"/>
      <point x="632" y="253" type="line"/>
      <point x="632" y="514" type="line"/>
      <point x="589" y="514" type="line" smooth="yes"/>
      <point x="578" y="514"/>
      <point x="567" y="505"/>
      <point x="561" y="496" type="curve" smooth="yes"/>
      <point x="401" y="262" type="line"/>
      <point x="398" y="258"/>
      <point x="396" y="251"/>
      <point x="396" y="248" type="curve" smooth="yes"/>
      <point x="396" y="231"/>
      <point x="403" y="222"/>
      <point x="419" y="222" type="curve" smooth="yes"/>
      <point x="552" y="222" type="line"/>
      <point x="552" y="196" type="line" smooth="yes"/>
      <point x="552" y="149"/>
      <point x="538" y="141"/>
      <point x="491" y="138" type="curve"/>
      <point x="485" y="134"/>
      <point x="485" y="120"/>
      <point x="491" y="116" type="curve"/>
      <point x="499" y="116"/>
      <point x="567" y="119"/>
      <point x="593" y="119" type="curve" smooth="yes"/>
      <point x="626" y="119"/>
      <point x="660" y="116"/>
      <point x="693" y="116" type="curve"/>
      <point x="699" y="120"/>
      <point x="699" y="134"/>
      <point x="693" y="138" type="curve"/>
      <point x="646" y="141"/>
      <point x="632" y="149"/>
      <point x="632" y="196" type="curve" smooth="yes"/>
      <point x="632" y="222" type="line"/>
      <point x="687" y="222" type="line" smooth="yes"/>
      <point x="696" y="222"/>
      <point x="706" y="235"/>
      <point x="706" y="243" type="curve" smooth="yes"/>
      <point x="706" y="249"/>
      <point x="703" y="253"/>
    </contour>
    <contour>
      <point x="552" y="439" type="line"/>
      <point x="552" y="253" type="line"/>
      <point x="432" y="253" type="line"/>
    </contour>
  </outline>
</glyph>
<glyph name="uni25CC" format="2">
  <advance width="515"/>
  <unicode hex="25CC"/>
  <outline>
    <contour>
      <point x="224.862" y="412.118" type="curve" smooth="yes"/>
      <point x="224.862" y="393.909"/>
      <point x="240.036" y="378.735"/>
      <point x="258.244" y="378.735" type="curve" smooth="yes"/>
      <point x="277.06" y="378.735"/>
      <point x="291.627" y="393.909"/>
      <point x="291.627" y="412.118" type="curve" smooth="yes"/>
      <point x="291.627" y="430.933"/>
      <point x="277.06" y="445.5"/>
      <point x="258.244" y="445.5" type="curve" smooth="yes"/>
      <point x="240.036" y="445.5"/>
      <point x="224.862" y="430.933"/>
    </contour>
    <contour>
      <point x="329.89" y="383.854" type="curve" smooth="yes"/>
      <point x="329.89" y="365.646"/>
      <point x="345.064" y="350.472"/>
      <point x="363.273" y="350.472" type="curve" smooth="yes"/>
      <point x="382.088" y="350.472"/>
      <point x="396.655" y="365.646"/>
      <point x="396.655" y="383.854" type="curve" smooth="yes"/>
      <point x="396.655" y="402.67"/>
      <point x="382.088" y="417.236"/>
      <point x="363.273" y="417.236" type="curve" smooth="yes"/>
      <point x="345.064" y="417.236"/>
      <point x="329.89" y="402.67"/>
    </contour>
    <contour>
      <point x="396.655" y="311.978" type="curve" smooth="yes"/>
      <point x="396.655" y="293.769"/>
      <point x="411.829" y="278.595"/>
      <point x="430.037" y="278.595" type="curve" smooth="yes"/>
      <point x="448.853" y="278.595"/>
      <point x="463.42" y="293.769"/>
      <point x="463.42" y="311.978" type="curve" smooth="yes"/>
      <point x="463.42" y="330.793"/>
      <point x="448.853" y="345.36"/>
      <point x="430.037" y="345.36" type="curve" smooth="yes"/>
      <point x="411.829" y="345.36"/>
      <point x="396.655" y="330.793"/>
    </contour>
    <contour>
      <point x="417.735" y="218.5" type="curve" smooth="yes"/>
      <point x="417.735" y="200.291"/>
      <point x="432.909" y="185.118"/>
      <point x="451.118" y="185.118" type="curve" smooth="yes"/>
      <point x="469.933" y="185.118"/>
      <point x="484.5" y="200.291"/>
      <point x="484.5" y="218.5" type="curve" smooth="yes"/>
      <point x="484.5" y="237.315"/>
      <point x="469.933" y="251.882"/>
      <point x="451.118" y="251.882" type="curve" smooth="yes"/>
      <point x="432.909" y="251.882"/>
      <point x="417.735" y="237.315"/>
    </contour>
    <contour>
      <point x="396.655" y="126.041" type="curve" smooth="yes"/>
      <point x="396.655" y="107.832"/>
      <point x="411.829" y="92.6586"/>
      <point x="430.037" y="92.6586" type="curve" smooth="yes"/>
      <point x="448.853" y="92.6586"/>
      <point x="463.42" y="107.832"/>
      <point x="463.42" y="126.041" type="curve" smooth="yes"/>
      <point x="463.42" y="144.857"/>
      <point x="448.853" y="159.423"/>
      <point x="430.037" y="159.423" type="curve" smooth="yes"/>
      <point x="411.829" y="159.423"/>
      <point x="396.655" y="144.857"/>
    </contour>
    <contour>
      <point x="329.89" y="54.8253" type="curve" smooth="yes"/>
      <point x="329.89" y="36.6168"/>
      <point x="345.064" y="21.443"/>
      <point x="363.273" y="21.443" type="curve" smooth="yes"/>
      <point x="382.088" y="21.443"/>
      <point x="396.655" y="36.6168"/>
      <point x="396.655" y="54.8253" type="curve" smooth="yes"/>
      <point x="396.655" y="73.6408"/>
      <point x="382.088" y="88.2077"/>
      <point x="363.273" y="88.2077" type="curve" smooth="yes"/>
      <point x="345.064" y="88.2077"/>
      <point x="329.89" y="73.6408"/>
    </contour>
    <contour>
      <point x="224.862" y="24.8824" type="curve" smooth="yes"/>
      <point x="224.862" y="6.6738"/>
      <point x="240.036" y="-8.5"/>
      <point x="258.244" y="-8.5" type="curve" smooth="yes"/>
      <point x="277.06" y="-8.5"/>
      <point x="291.627" y="6.6738"/>
      <point x="291.627" y="24.8824" type="curve" smooth="yes"/>
      <point x="291.627" y="43.6979"/>
      <point x="277.06" y="58.2647"/>
      <point x="258.244" y="58.2647" type="curve" smooth="yes"/>
      <point x="240.036" y="58.2647"/>
      <point x="224.862" y="43.6979"/>
    </contour>
    <contour>
      <point x="116.113" y="54.8253" type="curve" smooth="yes"/>
      <point x="116.113" y="36.6168"/>
      <point x="131.287" y="21.443"/>
      <point x="149.495" y="21.443" type="curve" smooth="yes"/>
      <point x="168.311" y="21.443"/>
      <point x="182.878" y="36.6168"/>
      <point x="182.878" y="54.8253" type="curve" smooth="yes"/>
      <point x="182.878" y="73.6408"/>
      <point x="168.311" y="88.2077"/>
      <point x="149.495" y="88.2077" type="curve" smooth="yes"/>
      <point x="131.287" y="88.2077"/>
      <point x="116.113" y="73.6408"/>
    </contour>
    <contour>
      <point x="51.3715" y="126.041" type="curve" smooth="yes"/>
      <point x="51.3715" y="107.832"/>
      <point x="66.5453" y="92.6586"/>
      <point x="84.7539" y="92.6586" type="curve" smooth="yes"/>
      <point x="103.569" y="92.6586"/>
      <point x="118.136" y="107.832"/>
      <point x="118.136" y="126.041" type="curve" smooth="yes"/>
      <point x="118.136" y="144.857"/>
      <point x="103.569" y="159.423"/>
      <point x="84.7539" y="159.423" type="curve" smooth="yes"/>
      <point x="66.5453" y="159.423"/>
      <point x="51.3715" y="144.857"/>
    </contour>
    <contour>
      <point x="30.5" y="218.5" type="curve" smooth="yes"/>
      <point x="30.5" y="200.291"/>
      <point x="45.6738" y="185.118"/>
      <point x="63.8824" y="185.118" type="curve" smooth="yes"/>
      <point x="82.6979" y="185.118"/>
      <point x="97.2647" y="200.291"/>
      <point x="97.2647" y="218.5" type="curve" smooth="yes"/>
      <point x="97.2647" y="237.315"/>
      <point x="82.6979" y="251.882"/>
      <point x="63.8824" y="251.882" type="curve" smooth="yes"/>
      <point x="45.6738" y="251.882"/>
      <point x="30.5" y="237.315"/>
    </contour>
    <contour>
      <point x="51.3715" y="311.978" type="curve" smooth="yes"/>
      <point x="51.3715" y="293.769"/>
      <point x="66.5453" y="278.595"/>
      <point x="84.7539" y="278.595" type="curve" smooth="yes"/>
      <point x="103.569" y="278.595"/>
      <point x="118.136" y="293.769"/>
      <point x="118.136" y="311.978" type="curve" smooth="yes"/>
      <point x="118.136" y="330.793"/>
      <point x="103.569" y="345.36"/>
      <point x="84.7539" y="345.36" type="curve" smooth="yes"/>
      <point x="66.5453" y="345.36"/>
      <point x="51.3715" y="330.793"/>
    </contour>
    <contour>
      <point x="116.113" y="383.854" type="curve" smooth="yes"/>
      <point x="116.113" y="365.646"/>
      <point x="131.287" y="350.472"/>
      <point x="149.495" y="350.472" type="curve" smooth="yes"/>
      <point x="168.311" y="350.472"/>
      <point x="182.878" y="365.646"/>
      <point x="182.878" y="383.854" type="curve" smooth="yes"/>
      <point x="182.878" y="402.67"/>
      <point x="168.311" y="417.236"/>
      <point x="149.495" y="417.236" type="curve" smooth="yes"/>
      <point x="131.287" y="417.236"/>
      <point x="116.113" y="402.67"/>
    </contour>
  </outline>
</glyph>
<glyph name="uni25D5" format="2">
  <advance width="564"/>
  <unicode hex="25D5"/>
  <outline>
    <contour>
      <point x="49" y="219" type="curve" smooth="yes"/>
      <point x="49" y="90.4047"/>
      <point x="153.1" y="-15"/>
      <point x="282" y="-15" type="curve" smooth="yes"/>
      <point x="410.249" y="-15"/>
      <point x="516" y="90.8056"/>
      <point x="516" y="219" type="curve" smooth="yes"/>
      <point x="516" y="347.737"/>
      <point x="410.487" y="452"/>
      <point x="282" y="452" type="curve" smooth="yes"/>
      <point x="153.052" y="452"/>
      <point x="49" y="348.062"/>
    </contour>
    <contour>
      <point x="75.3532" y="219" type="line"/>
      <point x="75.0066" y="333.82"/>
      <point x="167.187" y="426"/>
      <point x="282" y="426" type="curve"/>
      <point x="282" y="219" type="line"/>
    </contour>
  </outline>
</glyph>
<glyph name="uni2C63" format="2">
  <advance width="614"/>
  <unicode hex="2C63"/>
  <anchor x="275" y="740" name="top"/>
  <outline>
    <contour>
      <point x="364" y="491" type="line"/>
      <point x="20" y="491" type="line"/>
      <point x="20" y="449" type="line"/>
      <point x="364" y="449" type="line"/>
    </contour>
    <contour>
      <point x="182" y="0" type="line"/>
      <point x="222" y="0"/>
      <point x="298" y="-1"/>
      <point x="338" y="-2" type="curve"/>
      <point x="348" y="4"/>
      <point x="348" y="26"/>
      <point x="338" y="32" type="curve"/>
      <point x="283" y="35"/>
      <point x="255" y="39"/>
      <point x="255" y="122" type="curve" smooth="yes"/>
      <point x="255" y="524" type="line" smooth="yes"/>
      <point x="255" y="592"/>
      <point x="262" y="613"/>
      <point x="315" y="613" type="curve" smooth="yes"/>
      <point x="373" y="613"/>
      <point x="440" y="589"/>
      <point x="440" y="467" type="curve" smooth="yes"/>
      <point x="440" y="363"/>
      <point x="411" y="319"/>
      <point x="329" y="319" type="curve" smooth="yes"/>
      <point x="314" y="319"/>
      <point x="293" y="320"/>
      <point x="279" y="322" type="curve"/>
      <point x="279" y="303"/>
      <point x="285" y="289"/>
      <point x="299" y="280" type="curve"/>
      <point x="313" y="278"/>
      <point x="310" y="277"/>
      <point x="334" y="277" type="curve" smooth="yes"/>
      <point x="476" y="277"/>
      <point x="591" y="322"/>
      <point x="591" y="484" type="curve" smooth="yes"/>
      <point x="591" y="625"/>
      <point x="460" y="654"/>
      <point x="347" y="654" type="curve" smooth="yes"/>
      <point x="326" y="654"/>
      <point x="255" y="647"/>
      <point x="182" y="645" type="curve"/>
    </contour>
  </outline>
</glyph>
<glyph name="_corner._LC_lb" format="2">
  <advance width="169"/>
  <anchor x="99" y="0" name="origin"/>
  <anchor x="99" y="127" name="left"/>
  <anchor x="149" y="0" name="right"/>
  <outline>
    <contour>
      <point x="99" y="127" type="move"/>
      <point x="99" y="44"/>
      <point x="83" y="35"/>
      <point x="22" y="32" type="curve"/>
      <point x="16" y="26"/>
      <point x="16" y="4"/>
      <point x="22" y="-2" type="curve"/>
      <point x="60" y="-1"/>
      <point x="101" y="0"/>
      <point x="149" y="0" type="curve"/>
    </contour>
  </outline>
  <guideline angle="90" x="149" y="0"/>
  <guideline angle="90" x="17" y="0"/>
</glyph>
<glyph name="_corner._UC_rb" format="2">
  <advance width="221"/>
  <anchor x="100" y="0" name="origin"/>
  <anchor x="30" y="0" name="left"/>
  <anchor x="100" y="122" name="right"/>
  <outline>
    <contour>
      <point x="30" y="0" type="move"/>
      <point x="68" y="0"/>
      <point x="141" y="-1"/>
      <point x="183" y="-2" type="curve"/>
      <point x="193" y="4"/>
      <point x="193" y="26"/>
      <point x="183" y="32" type="curve"/>
      <point x="119" y="35"/>
      <point x="100" y="55"/>
      <point x="100" y="122" type="curve"/>
    </contour>
  </outline>
  <guideline angle="90" x="100" y="0"/>
  <guideline angle="90" x="30" y="0"/>
  <guideline angle="90" x="190" y="0"/>
  <guideline angle="0" x="0" y="122"/>
  <guideline angle="0" x="0" y="32"/>
</glyph>
<glyph name="_corner._UC_rt" format="2">
  <advance width="221"/>
  <anchor x="100" y="645" name="origin"/>
  <anchor x="100" y="523" name="left"/>
  <anchor x="30" y="645" name="right"/>
  <outline>
    <contour>
      <point x="100" y="523" type="move"/>
      <point x="100" y="590"/>
      <point x="119" y="610"/>
      <point x="183" y="613" type="curve"/>
      <point x="193" y="619"/>
      <point x="193" y="641"/>
      <point x="183" y="647" type="curve"/>
      <point x="141" y="646"/>
      <point x="68" y="645"/>
      <point x="30" y="645" type="curve"/>
    </contour>
  </outline>
  <guideline angle="90" x="100" y="0"/>
  <guideline angle="90" x="190" y="0"/>
  <guideline angle="90" x="30" y="0"/>
  <guideline angle="0" x="0" y="613"/>
  <guideline angle="0" x="0" y="523"/>
</glyph>
<glyph name="u.cv01" format="2">
  <advance width="598"/>
  <anchor x="266" y="500" name="top"/>
  <anchor x="484" y="10" name="b.ogonek"/>
  <anchor x="308" y="-60" name="b.minus-60"/>
  <anchor x="475" y="400" name="t.horn"/>
  <outline>
    <contour>
      <point x="217" y="-10" type="curve" smooth="yes"/>
      <point x="256" y="-10"/>
      <point x="338" y="24"/>
      <point x="398" y="59" type="curve"/>
      <point x="401" y="104" type="line"/>
      <point x="351" y="67"/>
      <point x="310" y="64"/>
      <point x="289" y="64" type="curve" smooth="yes"/>
      <point x="249" y="64"/>
      <point x="219" y="69"/>
      <point x="219" y="139" type="curve" smooth="yes"/>
      <point x="219" y="323" type="line" name=".sk1"/>
      <point x="219" y="374.375"/>
      <point x="220.078" y="402.678"/>
      <point x="223" y="428" type="curve"/>
      <point x="223" y="438.674"/>
      <point x="214.441" y="445"/>
      <point x="200" y="445" type="curve"/>
      <point x="170.764" y="433.306"/>
      <point x="86.6902" y="420.08"/>
      <point x="22" y="417" type="curve"/>
      <point x="20.3" y="411.9"/>
      <point x="21.5714" y="390.286"/>
      <point x="24" y="383" type="curve"/>
      <point x="76.6047" y="377.942"/>
      <point x="89" y="366.5"/>
      <point x="89" y="323" type="curve"/>
      <point x="89" y="150" type="line" smooth="yes"/>
      <point x="89" y="44"/>
      <point x="131" y="-10"/>
    </contour>
    <contour>
      <point x="388" y="7" type="curve"/>
      <point x="389" y="-5"/>
      <point x="397" y="-10"/>
      <point x="411" y="-10" type="curve"/>
      <point x="448" y="0"/>
      <point x="508" y="14"/>
      <point x="577" y="23" type="curve"/>
      <point x="579" y="29"/>
      <point x="577" y="49"/>
      <point x="575" y="55" type="curve"/>
      <point x="521" y="60"/>
      <point x="510" y="76"/>
      <point x="510" y="133" type="curve" smooth="yes"/>
      <point x="510" y="323" type="line" name=".sk2"/>
      <point x="510" y="374.375"/>
      <point x="511.078" y="402.678"/>
      <point x="514" y="428" type="curve"/>
      <point x="514" y="438.674"/>
      <point x="505.441" y="445"/>
      <point x="491" y="445" type="curve"/>
      <point x="461.764" y="433.306"/>
      <point x="377.69" y="420.08"/>
      <point x="313" y="417" type="curve"/>
      <point x="311.3" y="411.9"/>
      <point x="312.571" y="390.286"/>
      <point x="315" y="383" type="curve"/>
      <point x="367.605" y="377.942"/>
      <point x="380" y="366.5"/>
      <point x="380" y="323" type="curve"/>
      <point x="380" y="121" type="line" smooth="yes"/>
      <point x="380" y="83"/>
      <point x="383" y="45"/>
    </contour>
  </outline>
</glyph>
<glyph name="zero.slash.fitted" format="2">
  <advance width="532"/>
  <outline>
    <contour>
      <point x="39" y="298" type="curve" smooth="yes"/>
      <point x="39" y="118"/>
      <point x="132" y="-10"/>
      <point x="264" y="-10" type="curve" smooth="yes"/>
      <point x="398" y="-10"/>
      <point x="493" y="119"/>
      <point x="493" y="307" type="curve" smooth="yes"/>
      <point x="493" y="493"/>
      <point x="405" y="610"/>
      <point x="268" y="610" type="curve" smooth="yes"/>
      <point x="131" y="610"/>
      <point x="39" y="485"/>
    </contour>
    <contour>
      <point x="182" y="287" type="curve" smooth="yes"/>
      <point x="182" y="473"/>
      <point x="211" y="568"/>
      <point x="268" y="568" type="curve" smooth="yes"/>
      <point x="314" y="568"/>
      <point x="350" y="463"/>
      <point x="350" y="327" type="curve" smooth="yes"/>
      <point x="350" y="138"/>
      <point x="319.002" y="32.8926"/>
      <point x="265" y="32" type="curve" smooth="yes"/>
      <point x="198.002" y="30.8926"/>
      <point x="182" y="141"/>
    </contour>
    <contour>
      <point x="177" y="193" type="line"/>
      <point x="334" y="519" type="line"/>
      <point x="350" y="449" type="line"/>
      <point x="186" y="110" type="line"/>
    </contour>
    <contour>
      <point x="71" y="-25" type="line"/>
      <point x="112" y="-44" type="line"/>
      <point x="153" y="43" type="line"/>
      <point x="120" y="74" type="line"/>
    </contour>
    <contour>
      <point x="361" y="572" type="line"/>
      <point x="396" y="548" type="line"/>
      <point x="436" y="626" type="line"/>
      <point x="395" y="645" type="line"/>
    </contour>
  </outline>
</glyph>
